<svg width="1440" height="1024" viewBox="0 0 1440 1024" fill="none" xmlns="http://www.w3.org/2000/svg">
<g clip-path="url(#clip0_1_2)">
<g clip-path="url(#clip1_1_2)">
<path d="M481.14 717.627L453.924 689.256L447.42 695.313L417.546 686.446L419.666 681.594L388.359 655.378L374.594 686.942L366.924 675.709L376.362 654.557L340.474 638.144L334.767 650.831L337.558 641.029L305.033 643.948L312.157 628.041L276.276 611.619L274.444 615.542L231.844 623.643L230.931 627.354L187.613 619.107L197.382 661.394L174.79 670.418L185.579 723.562L178.311 721.638L163.211 865.941C197.213 904.499 335.805 941.179 384.434 924.49L440.466 796.663L467.258 765.35L453.406 743.661L481.14 717.627ZM453.412 702.966L466.922 717.067L452.268 730.935L455.955 726.625L444.741 711.457L453.412 702.966ZM443.641 726.037L427.543 743.511L415.215 729.126L430.484 708.97L443.641 726.037ZM413.845 695.257L425.595 698.704L400.54 731.544L413.845 695.257ZM391.927 671.102L407.718 684.254L389.14 734.767L378.641 722.832L388.423 705.754L381.45 696.458L391.927 671.102ZM364.499 689.439L376.658 706.272L371.504 715.402L362.364 706.201L359.956 713.71C359.956 713.71 345.156 751.016 338.951 762.866C334.613 771.145 319.03 794.583 319.03 794.583C319.03 794.583 325.982 771.312 328.655 763.67C331.619 755.206 338.423 738.596 342.262 730.491C347.267 719.952 364.499 689.439 364.499 689.439ZM320.93 715.147C326.047 698.735 345.411 650.886 345.411 650.886L363.39 659.111C363.39 659.111 326.134 741.395 316.193 769.758C313.337 777.914 306.944 803.054 306.944 803.054C305.427 802.77 303.9 802.422 302.373 802.074L306.106 775.811C306.101 775.81 316.287 730.056 320.93 715.147ZM292.882 799.49C292.274 799.294 291.658 799.105 291.057 798.9L296.859 771.903L292.882 799.49ZM324.238 651.63L311.199 713.415L306.226 730.636L300.762 723.021L308.57 677.501L299.407 668.892L302.982 653.772L324.238 651.63ZM281.209 624.359L299.186 632.59L288.14 658.771L272.158 645.313L281.209 624.359ZM262.503 627.232C262.503 627.232 255.177 657.166 253.253 667.253C251.808 674.848 248.643 697.834 248.643 697.834L250.157 678.389L239.483 672.046L236.139 648.756L239.99 631.667L262.503 627.232ZM201.04 631.25L223.744 635.63L228.697 665.524L213.459 656.119L210.462 684.067L201.04 631.25ZM194.216 725.847L184.96 676.572L198.883 671.08L200.264 727.448L194.216 725.847ZM221.008 732.938L220.966 732.692L220.458 681.902L221.318 672.233L239.748 683.341C239.748 683.341 238.407 707.407 238.576 715.444C238.696 721.109 240.352 738.058 240.352 738.058L221.008 732.938ZM240.475 739.648L240.946 745.635L244.22 762.89C240.284 755.26 238.856 747.314 240.475 739.648ZM262.985 669.267L271.484 646.952L271.016 654.239L255.269 740.668L262.985 669.267ZM265.601 753.07C263.256 759.415 257.746 778.966 257.746 778.966L255.51 770.147C255.51 770.147 258.301 763.062 259.052 760.646C264.479 743.243 273.562 707.876 276.931 689.954C278.115 683.628 280.116 664.394 280.116 664.394L298.244 680.871L293.198 711.633L287.623 702.87C287.623 702.87 270.349 740.221 265.601 753.07ZM278.028 747.656C280.329 741.238 288.736 722.555 288.736 722.555L298.776 736.887C298.776 736.887 289.717 761.515 287.198 769.888C285.632 775.101 281.87 791.004 281.87 791.004L281.207 794.96C276.095 792.662 271.194 789.938 266.561 786.82C266.556 786.818 274.587 757.256 278.028 747.656ZM286.075 898.775L280.158 893.154L277.67 890.821C277.451 891.085 277.156 891.282 276.82 891.387C276.484 891.492 276.122 891.501 275.777 891.413L273.966 890.949C273.623 890.852 273.315 890.663 273.077 890.403C272.84 890.144 272.684 889.825 272.628 889.486L269.314 890.294L261.379 892.239L265.378 877.129L271.321 882.751L273.801 885.093C274.013 884.825 274.304 884.625 274.638 884.519C274.971 884.412 275.332 884.405 275.674 884.496L277.495 884.963C277.839 885.061 278.149 885.252 278.387 885.513C278.625 885.774 278.781 886.095 278.836 886.436L282.153 885.618L290.074 883.665L288.087 891.213L286.075 898.775ZM317.502 851.677C317.204 851.757 316.92 851.876 316.658 852.031C316.731 854.761 316.416 857.48 315.723 860.113C311.479 876.088 294.411 885.431 277.582 880.992C260.735 876.538 250.513 859.973 254.747 843.975C255.472 841.277 256.552 838.784 257.925 836.497C257.783 836.227 257.594 835.981 257.366 835.772C256.705 835.127 256.732 835.569 257.008 834.528L257.15 833.989C257.264 833.559 257.337 833.487 257.606 833.435C258.088 833.343 258.576 833.253 259.068 833.245C259.429 833.208 259.829 833.207 260.235 833.222C263.996 828.623 269.094 825.214 274.9 823.413C280.706 821.612 286.967 821.499 292.912 823.087C298.857 824.653 304.235 827.849 308.385 832.283C312.535 836.718 315.277 842.197 316.274 848.048C316.642 848.248 316.979 848.444 317.294 848.64C317.702 848.911 318.094 849.219 318.463 849.537C318.671 849.719 318.701 849.824 318.593 850.255L318.442 850.803C318.16 851.831 318.408 851.457 317.502 851.677ZM349.716 801.693C341.859 803.985 332.96 805.067 323.492 804.813L326.586 800.852C326.586 800.852 343.186 775.222 348.241 766.407C349.297 764.552 351.268 760.748 352.176 758.823C356.179 750.322 366.819 724.228 366.819 724.228L383.225 742.543C383.225 742.543 373.983 762.368 370.436 768.747C365.711 777.241 349.716 801.693 349.716 801.693ZM401.725 754.154C399.365 759.75 391.276 776.086 391.276 776.086L389.374 777.498L380.239 775.08C378.495 781.671 374.555 787.298 369.055 791.858L367.666 792.819L385.045 761.93L407.496 738.507C407.496 738.507 403.345 750.309 401.725 754.154ZM418.548 769.204C416.748 772.767 410.719 783.147 410.719 783.147L400.036 780.32C400.036 780.32 407.478 765.625 409.682 760.601C411.415 756.647 415.943 744.512 415.943 744.512L424.722 755.537C424.722 755.537 420.238 765.857 418.548 769.204ZM454.323 763.545L433.319 789.128L419.953 785.591C419.953 785.591 425.06 778.051 426.513 775.397C428.442 771.853 433.188 760.704 433.188 760.704L445.299 749.135L454.323 763.545Z" fill="#0D0D0D"/>
<path d="M274.733 836.288C278.421 837.606 281.352 839.235 283.592 841.176C285.708 842.982 289.322 843.938 292.047 843.424C294.951 842.854 298.313 842.871 302.166 843.548C304.562 843.978 308.593 844.968 312.136 846.253C310.896 841.558 308.371 837.246 304.826 833.773C301.281 830.301 296.848 827.797 291.996 826.527C287.151 825.228 282.059 825.21 277.259 826.474C272.459 827.738 268.13 830.237 264.73 833.707C268.123 834.322 271.466 835.184 274.733 836.288ZM304.231 863.685C300.469 863.992 296.692 862.951 293.622 860.76C291.869 859.538 290.535 857.836 289.799 855.882C288.363 852.111 289.581 850.304 289.109 847.278C288.725 844.643 285.878 843.89 284.206 845.98C282.328 848.384 282.474 850.552 279.363 853.11C277.598 854.583 275.69 855.253 273.625 855.467C269.899 855.86 266.074 854.894 262.968 852.764C260.085 850.796 258.553 848.011 258.512 844.364C258.455 844.538 258.401 844.743 258.356 844.93C254.623 859.038 263.617 873.66 278.48 877.578C293.309 881.503 308.377 873.255 312.109 859.156C312.163 858.972 312.214 858.76 312.259 858.568C310.42 861.753 307.713 863.386 304.231 863.685ZM288.762 870.709C286.319 871.747 283.136 871.901 280.198 871.108C277.242 870.341 274.561 868.636 272.947 866.523C271.329 864.425 270.812 861.929 271.591 859.975C272.291 861.998 273.586 863.705 275.231 865.059C276.876 866.429 278.896 867.413 281.026 867.977C283.157 868.541 285.392 868.668 287.499 868.296C289.599 867.948 291.558 867.108 293.174 865.692C292.887 867.781 291.211 869.687 288.762 870.709Z" fill="#0D0D0D"/>
</g>
<g clip-path="url(#clip2_1_2)">
<path d="M108.789 483.6L105.223 475.87L103.524 477.259L98.1406 474.39L98.8845 473.211L94.3595 465.938L89.5259 473.604L88.7348 470.609L92.0167 465.477L85.9293 460.578L83.9518 463.655L85.1564 461.243L78.4653 461.289L80.9385 457.43L74.8532 452.529L74.2283 453.479L65.1821 454.618L64.7548 455.535L56.6441 452.537L55.8051 463.405L50.6954 465.202L49.3437 478.829L48.0185 478.19L35.4776 514.252C39.7263 524.695 64.9965 536.881 75.8139 533.704L95.4457 502.664L102.866 495.337L101.529 489.575L108.789 483.6ZM104.216 479.315L105.985 483.157L102.142 486.343L103.163 485.334L101.923 481.272L104.216 479.315ZM100.741 484.925L96.3716 488.989L94.858 485.101L99.239 480.343L100.741 484.925ZM96.8196 476.533L98.9397 477.651L91.7662 485.399L96.8196 476.533ZM94.0345 469.978L96.3216 473.629L89.2758 485.97L87.9658 482.739L91.0475 478.64L90.2678 476.149L94.0345 469.978ZM87.3443 474.019L88.6627 478.521L87.0302 480.714L85.8113 478.2L84.8347 480.042C84.8347 480.042 79.4153 489.134 77.3935 491.991C75.9804 493.986 71.32 499.565 71.32 499.565C71.32 499.565 74.2449 493.845 75.2833 491.975C76.4342 489.904 78.8898 485.86 80.1918 483.898C81.8874 481.347 87.3443 474.019 87.3443 474.019ZM76.9424 479.578C79.0479 475.548 86.075 463.895 86.075 463.895L89.1243 466.35C89.1243 466.35 76.2497 486.306 72.3916 493.246C71.2826 495.241 68.3462 501.444 68.3462 501.444C68.0617 501.34 67.7796 501.22 67.4974 501.1L69.9766 494.558C69.9757 494.558 75.0306 483.238 76.9424 479.578ZM65.7717 500.248C65.6631 500.185 65.5525 500.125 65.446 500.06L68.3871 493.377L65.7717 500.248ZM81.7954 463.633L75.1124 478.934L72.9821 483.171L72.3931 481.135L76.9573 469.824L75.6948 467.459L77.4071 463.723L81.7954 463.633ZM74.9979 455.845L78.0467 458.302L74.1117 464.668L71.8067 460.936L74.9979 455.845ZM71.0708 456.173C71.0708 456.173 67.6316 463.565 66.5814 466.067C65.7914 467.951 63.642 473.68 63.642 473.68L65.2278 468.809L63.5138 466.984L64.3827 461.041L66.2802 456.814L71.0708 456.173ZM58.5253 455.883L62.7726 457.469L61.7891 465.111L59.3653 462.416L56.9219 469.399L58.5253 455.883ZM50.9185 479.589L52.3212 466.969L55.4656 465.879L52.0213 480.12L50.9185 479.589ZM55.8035 481.944L55.8115 481.882L59.062 469.065L59.872 466.646L62.8213 469.837C62.8213 469.837 60.965 475.876 60.4683 477.906C60.1184 479.337 59.3307 483.645 59.3307 483.645L55.8035 481.944ZM59.2502 484.049L58.9492 485.568L58.4646 489.988C58.1818 487.981 58.4208 485.947 59.2502 484.049ZM68.3928 466.781L71.5639 461.336L70.9893 463.163L62.1388 484.62L68.3928 466.781ZM63.3847 487.966C62.4974 489.516 60.1061 494.328 60.1061 494.328L60.2413 492.057C60.2413 492.057 61.2666 490.33 61.5762 489.737C63.809 485.464 67.958 476.74 69.814 472.293C70.468 470.723 72.1373 465.916 72.1373 465.916L74.6719 470.455L71.6333 478.103L71.0978 475.776C71.0978 475.776 65.1814 484.827 63.3847 487.966ZM66.2249 486.864C67.1082 485.295 70.0209 480.763 70.0209 480.763L71.0811 484.589C71.0811 484.589 67.6457 490.606 66.5897 492.664C65.9327 493.945 64.1316 497.875 64.1316 497.875L63.7379 498.858C62.8683 498.17 62.0689 497.379 61.3489 496.495C61.348 496.495 64.9039 489.211 66.2249 486.864ZM57.8588 525.135L57.0477 523.593L56.7046 522.952C56.6433 523.014 56.5713 523.057 56.4973 523.077C56.4233 523.096 56.3504 523.09 56.2873 523.061L55.9561 522.906C55.894 522.874 55.8448 522.82 55.8144 522.749C55.7841 522.679 55.7739 522.595 55.7851 522.508L55.0697 522.642L53.3559 522.964L55.1522 519.239L55.9685 520.783L56.3095 521.426C56.3696 521.363 56.441 521.318 56.5146 521.299C56.5882 521.279 56.6608 521.285 56.7232 521.315L57.0562 521.471C57.1185 521.503 57.1678 521.558 57.1981 521.629C57.2284 521.7 57.2384 521.784 57.2269 521.871L57.9435 521.735L59.6551 521.411L58.7599 523.272L57.8588 525.135ZM67.2466 513.927C67.1818 513.941 67.1171 513.965 67.0545 513.999C66.8888 514.688 66.6465 515.367 66.3342 516.016C64.432 519.954 60.4052 521.948 57.3356 520.472C54.2635 518.992 53.3145 514.599 55.2163 510.655C55.5393 509.99 55.9196 509.384 56.3448 508.837C56.3343 508.766 56.3127 508.7 56.2809 508.642C56.1915 508.466 56.1678 508.577 56.2915 508.321L56.3556 508.188C56.4067 508.082 56.4259 508.065 56.4831 508.058C56.5856 508.045 56.6889 508.033 56.7878 508.041C56.8624 508.04 56.9424 508.048 57.0225 508.06C58.0776 506.98 59.3211 506.229 60.5999 505.898C61.8788 505.567 63.1373 505.671 64.2203 506.198C65.3048 506.719 66.1683 507.638 66.7049 508.844C67.2414 510.05 67.4276 511.49 67.2406 512.986C67.3009 513.044 67.3553 513.101 67.4054 513.157C67.469 513.234 67.5271 513.32 67.5798 513.408C67.6092 513.458 67.6084 513.486 67.5582 513.592L67.4921 513.727C67.3677 513.98 67.4419 513.891 67.2466 513.927ZM76.9817 502.008C75.2607 502.419 73.4112 502.503 71.5363 502.239L72.4159 501.306C72.4159 501.306 77.4242 495.196 79.016 493.08C79.3493 492.635 79.9942 491.718 80.3028 491.252C81.6635 489.193 85.5116 482.84 85.5116 482.84L87.5809 487.805C87.5809 487.805 84.4259 492.608 83.2961 494.141C81.7915 496.182 76.9817 502.008 76.9817 502.008ZM90.5108 491.125C89.67 492.486 86.9756 496.433 86.9756 496.433L86.5023 496.749L84.8368 495.945C84.0532 497.57 82.8947 498.905 81.4948 499.939L81.154 500.151L86.665 492.732L92.6966 487.302C92.6966 487.302 91.0883 490.19 90.5108 491.125ZM92.8789 495.276C92.284 496.136 90.3944 498.626 90.3944 498.626L88.4465 497.686C88.4465 497.686 90.9032 494.139 91.6751 492.919C92.2824 491.959 93.9879 488.995 93.9879 488.995L95.0144 491.961C95.0144 491.961 93.4375 494.468 92.8789 495.276ZM100.4 494.608L94.5151 500.613L92.0781 499.438C92.0781 499.438 93.5959 497.645 94.0615 497.007C94.6808 496.154 96.3648 493.444 96.3648 493.444L99.5483 490.784L100.4 494.608Z" fill="#0D0D0D"/>
<path d="M59.7168 509.14C60.3668 509.551 60.8448 510.024 61.1642 510.561C61.4678 511.061 62.1268 511.379 62.7052 511.307C63.3231 511.225 63.9938 511.3 64.7189 511.553C65.1691 511.712 65.9092 512.047 66.5323 512.446C66.5946 511.236 66.3745 510.095 65.8954 509.145C65.4162 508.194 64.6958 507.469 63.8103 507.046C62.9279 506.615 61.9116 506.503 60.8692 506.72C59.8267 506.937 58.7969 507.475 57.8886 508.278C58.5259 508.505 59.137 508.793 59.7168 509.14ZM63.8023 516.673C63.0304 516.671 62.3446 516.328 61.8757 515.711C61.6061 515.366 61.4519 514.908 61.4338 514.4C61.3958 513.419 61.7585 512.989 61.8639 512.216C61.961 511.544 61.4418 511.293 60.9698 511.785C60.4361 512.351 60.322 512.901 59.5316 513.48C59.0818 513.814 58.6564 513.942 58.2296 513.953C57.4592 513.973 56.7589 513.648 56.2787 513.045C55.8326 512.488 55.7104 511.753 55.9428 510.833C55.92 510.875 55.8956 510.926 55.8744 510.972C54.1972 514.45 55.0293 518.327 57.7403 519.63C60.4442 520.934 63.9993 519.174 65.6753 515.699C65.6983 515.653 65.7223 515.601 65.7441 515.553C65.1665 516.318 64.5179 516.672 63.8023 516.673ZM60.2481 518.116C59.6915 518.326 59.0453 518.298 58.5106 518.035C57.9706 517.779 57.5476 517.292 57.3645 516.726C57.1797 516.162 57.2412 515.522 57.5257 515.046C57.532 515.571 57.6782 516.029 57.9174 516.405C58.1557 516.785 58.4943 517.076 58.8828 517.264C59.2712 517.451 59.7095 517.53 60.155 517.481C60.5976 517.438 61.0444 517.268 61.4607 516.945C61.2655 517.466 60.8049 517.911 60.2481 518.116Z" fill="#0D0D0D"/>
</g>
<g clip-path="url(#clip3_1_2)">
<path d="M1147.27 210.459L1130.84 205.211L1129.58 208.893L1116.18 211.699L1115.99 209.392L1098.42 205.824L1099.67 220.828L1094.36 218.104L1093.61 208.005L1076.31 209.16L1076.75 215.227L1075.79 210.876L1063.81 218.767L1063.26 211.167L1045.96 212.317L1046.07 214.207L1031.28 226.187L1031.7 227.804L1013.22 233.646L1025.8 247.877L1018.94 256.049L1034.18 274.242L1030.96 275.015L1055.16 333.654C1076.34 341.408 1137.58 326.676 1152.92 310.139L1147.99 249.319L1151.83 231.701L1141.96 226.242L1147.27 210.459ZM1133.49 210.59L1141.65 213.201L1138.87 221.584L1139.4 219.16L1131.91 215.659L1133.49 210.59ZM1134.51 221.496L1131.92 231.566L1124.16 228.599L1125.87 217.67L1134.51 221.496ZM1116.58 215.858L1121.85 214.739L1118.99 232.582L1116.58 215.858ZM1103.08 211.129L1111.92 212.901L1115.25 236.194L1108.7 233.789L1108.93 225.185L1104.3 223.061L1103.08 211.129ZM1096.28 223.888L1104.49 227.832L1104.4 232.416L1098.95 230.779L1099.58 234.168C1099.58 234.168 1101.62 251.595 1101.68 257.444C1101.73 261.531 1100.58 273.787 1100.58 273.787C1100.58 273.787 1098.43 263.391 1097.87 259.896C1097.25 256.024 1096.43 248.22 1096.23 244.304C1095.97 239.209 1096.28 223.888 1096.28 223.888ZM1084.78 242.842C1083.34 235.465 1080.88 213.033 1080.88 213.033L1089.54 212.455C1089.54 212.455 1092.26 251.854 1094.32 264.83C1094.91 268.561 1097.67 279.56 1097.67 279.56C1097.02 279.766 1096.36 279.95 1095.69 280.134L1091.67 269.257C1091.67 269.258 1086.09 249.542 1084.78 242.842ZM1091.49 281.116C1091.21 281.167 1090.93 281.222 1090.66 281.268L1087.28 269.678L1091.49 281.116ZM1072.84 217.725L1080.66 244.2L1082.32 251.858L1078.62 250.067L1072.16 230.935L1066.83 229.531L1065.06 222.972L1072.84 217.725ZM1050.52 216.191L1059.19 215.615L1060.36 227.983L1051.38 226.132L1050.52 216.191ZM1043.88 221.188C1043.88 221.188 1047.28 234.224 1048.63 238.504C1049.66 241.726 1053.22 251.225 1053.22 251.225L1049.75 243.431L1044.3 243.213L1038.16 234.952L1036.1 227.578L1043.88 221.188ZM1020.94 235.523L1030.64 232.483L1038.78 242.949L1030.92 242.503L1035.58 253.875L1020.94 235.523ZM1037.99 273.324L1024.16 256.299L1028.4 251.29L1040.67 272.681L1037.99 273.324ZM1049.83 270.476L1049.76 270.39L1039 250.962L1037.32 247.065L1046.76 247.502C1046.76 247.502 1051.25 257.036 1052.99 260.092C1054.21 262.246 1058.38 268.42 1058.38 268.42L1049.83 270.476ZM1058.76 269.006L1060.19 271.21L1065.05 277.165C1061.93 275.05 1059.73 272.291 1058.76 269.006ZM1052.82 237.254L1051.46 226.903L1052.8 229.803L1064.69 266.32L1052.82 237.254ZM1071.27 268.939C1071.69 271.868 1073.62 280.533 1073.62 280.533L1070.92 277.607C1070.92 277.607 1070.53 274.301 1070.32 273.216C1068.79 265.394 1064.94 249.902 1062.52 242.308C1061.66 239.629 1058.43 231.815 1058.43 231.815L1068.87 234.38L1073.32 247.261L1069.34 245.051C1069.34 245.051 1070.43 263.01 1071.27 268.939ZM1074.95 264.272C1074.51 261.324 1073.87 252.39 1073.87 252.39L1080.74 255.812C1080.74 255.812 1082.36 267.169 1083.13 270.914C1083.61 273.244 1085.46 280.143 1085.46 280.143L1086.03 281.803C1083.57 281.982 1081.11 281.955 1078.67 281.72C1078.67 281.72 1075.62 268.679 1074.95 264.272ZM1109.52 320.716L1106.06 319.786L1104.61 319.406C1104.58 319.553 1104.51 319.69 1104.4 319.801C1104.29 319.911 1104.15 319.99 1104 320.027L1103.2 320.226C1103.05 320.26 1102.89 320.252 1102.75 320.201C1102.6 320.151 1102.47 320.061 1102.38 319.942L1101.27 320.942L1098.6 323.341L1097.01 316.698L1100.48 317.624L1101.92 318.008C1101.95 317.861 1102.02 317.724 1102.13 317.613C1102.23 317.503 1102.37 317.425 1102.52 317.389L1103.32 317.189C1103.48 317.155 1103.64 317.165 1103.78 317.216C1103.93 317.267 1104.06 317.357 1104.15 317.477L1105.26 316.472L1107.92 314.073L1108.72 317.389L1109.52 320.716ZM1111.87 296.063C1111.77 296.156 1111.69 296.261 1111.62 296.375C1112.21 297.41 1112.66 298.521 1112.94 299.678C1114.62 306.705 1109.96 313.85 1102.53 315.644C1095.09 317.437 1087.69 313.193 1085.99 306.159C1085.71 304.971 1085.61 303.787 1085.67 302.622C1085.56 302.548 1085.43 302.493 1085.3 302.46C1084.91 302.349 1085.01 302.513 1084.9 302.056L1084.84 301.819C1084.8 301.63 1084.81 301.587 1084.91 301.511C1085.07 301.375 1085.24 301.239 1085.43 301.134C1085.56 301.044 1085.72 300.96 1085.88 300.882C1086.38 298.331 1087.64 295.959 1089.51 294.058C1091.38 292.157 1093.78 290.811 1096.41 290.185C1099.03 289.55 1101.78 289.66 1104.31 290.502C1106.84 291.344 1109.04 292.88 1110.64 294.923C1110.82 294.923 1111 294.929 1111.16 294.938C1111.37 294.958 1111.59 294.995 1111.8 295.04C1111.92 295.067 1111.95 295.101 1112 295.289L1112.05 295.531C1112.16 295.986 1112.18 295.79 1111.87 296.063ZM1113.93 270.137C1111.37 272.653 1108.15 274.921 1104.43 276.793L1104.81 274.626C1104.81 274.626 1105.89 261.315 1106.01 256.873C1106.04 255.94 1106.01 254.067 1105.96 253.137C1105.74 249.035 1104.42 236.785 1104.42 236.785L1114.58 240.415C1114.58 240.415 1115.13 249.963 1115.09 253.155C1115.03 257.404 1113.93 270.137 1113.93 270.137ZM1124.15 241.031C1124.4 243.675 1124.68 251.64 1124.68 251.64L1124.23 252.579L1120.2 253.55C1120.89 256.448 1120.54 259.432 1119.36 262.33L1119.03 262.988L1119.32 247.493L1123.13 233.813C1123.13 233.813 1123.98 239.215 1124.15 241.031ZM1133.79 243.319C1133.84 245.064 1133.67 250.31 1133.67 250.31L1128.95 251.446C1128.95 251.446 1128.77 244.246 1128.57 241.855C1128.42 239.974 1127.65 234.364 1127.65 234.364L1133.34 236.778C1133.34 236.778 1133.75 241.68 1133.79 243.319ZM1146.45 233.698L1143.65 247.908L1137.75 249.329C1137.75 249.329 1138.15 245.366 1138.16 244.043C1138.17 242.279 1137.69 237.004 1137.69 237.004L1139.96 230.034L1146.45 233.698Z" fill="#0D0D0D"/>
<path d="M1092.12 299.044C1093.83 298.784 1095.3 298.8 1096.57 299.081C1097.76 299.335 1099.36 298.951 1100.31 298.186C1101.31 297.363 1102.62 296.669 1104.25 296.128C1105.26 295.795 1107.03 295.337 1108.67 295.094C1107.21 293.546 1105.34 292.413 1103.24 291.815C1101.15 291.218 1098.91 291.177 1096.77 291.698C1094.63 292.207 1092.65 293.259 1091.06 294.744C1089.47 296.229 1088.31 298.091 1087.72 300.133C1089.16 299.664 1090.63 299.3 1092.12 299.044ZM1109.24 303.443C1107.85 304.344 1106.17 304.729 1104.52 304.525C1103.59 304.42 1102.72 304.043 1102.03 303.445C1100.69 302.294 1100.79 301.345 1099.97 300.28C1099.28 299.346 1098.02 299.649 1097.81 300.801C1097.58 302.116 1098.09 302.92 1097.42 304.55C1097.04 305.484 1096.44 306.139 1095.69 306.651C1094.33 307.577 1092.65 308.002 1091 307.829C1089.48 307.672 1088.31 306.92 1087.53 305.526C1087.54 305.604 1087.57 305.694 1087.59 305.776C1089.08 311.978 1095.6 315.73 1102.17 314.145C1108.72 312.568 1112.83 306.261 1111.34 300.062C1111.32 299.98 1111.3 299.888 1111.28 299.804C1111.23 301.412 1110.52 302.603 1109.24 303.443ZM1104.72 309.363C1103.99 310.271 1102.79 310.992 1101.49 311.299C1100.18 311.619 1098.79 311.521 1097.73 311.044C1096.66 310.574 1095.94 309.721 1095.84 308.808C1096.53 309.44 1097.39 309.827 1098.31 310.006C1099.23 310.19 1100.21 310.149 1101.15 309.922C1102.1 309.696 1102.99 309.279 1103.72 308.698C1104.46 308.127 1105.05 307.396 1105.38 306.516C1105.7 307.379 1105.45 308.46 1104.72 309.363Z" fill="#0D0D0D"/>
</g>
<g clip-path="url(#clip4_1_2)">
<path d="M802.92 556.413L795.009 559.557L796.305 561.329L793.15 566.55L792.013 565.744L784.507 569.87L791.901 575.11L788.868 575.738L783.92 572.185L778.7 577.999L781.667 580.14L779.323 578.807L779.008 585.491L775.288 582.813L770.066 588.626L770.981 589.301L771.631 598.395L772.523 598.871L769.093 606.809L779.901 608.232L781.419 613.431L794.954 615.515L794.244 616.804L829.578 631.27C840.234 627.59 853.765 603.013 851.175 592.04L821.238 570.764L814.322 562.961L808.496 563.984L802.92 556.413ZM798.396 560.748L802.327 559.189L805.301 563.198L804.349 562.125L800.226 563.143L798.396 560.748ZM803.81 564.521L807.633 569.103L803.669 570.405L799.154 565.774L803.81 564.521ZM795.219 567.984L796.449 565.928L803.8 573.508L795.219 567.984ZM788.523 570.412L792.292 568.325L804.236 576.026L800.938 577.16L797.012 573.862L794.482 574.506L788.523 570.412ZM792.199 577.311L796.765 576.237L798.866 577.985L796.291 579.067L798.078 580.141C798.078 580.141 806.864 586.042 809.607 588.215C811.524 589.734 816.843 594.688 816.843 594.688C816.843 594.688 811.29 591.459 809.478 590.322C807.472 589.061 803.567 586.391 801.678 584.985C799.222 583.154 792.199 577.311 792.199 577.311ZM797.188 587.997C793.278 585.677 782.02 578.033 782.02 578.033L784.636 575.12C784.636 575.12 803.869 589.051 810.591 593.278C812.524 594.492 818.56 597.759 818.56 597.759C818.441 598.037 818.306 598.313 818.171 598.588L811.771 595.76C811.771 595.761 800.74 590.103 797.188 587.997ZM817.226 600.265C817.158 600.37 817.092 600.477 817.022 600.58L810.506 597.283L817.226 600.265ZM781.528 582.292L796.447 589.79L800.563 592.145L798.498 592.623L787.449 587.456L785.02 588.59L781.381 586.679L781.528 582.292ZM773.386 588.66L776.003 585.748L782.148 590.02L778.297 592.121L773.386 588.66ZM773.501 592.599C773.501 592.599 780.697 596.431 783.139 597.615C784.978 598.505 790.582 600.96 790.582 600.96L785.804 599.114L783.889 600.727L778.002 599.54L773.883 597.417L773.501 592.599ZM772.536 605.111L774.348 600.955L781.926 602.349L779.105 604.624L785.946 607.44L772.536 605.111ZM795.797 613.984L783.271 611.903L782.353 608.704L796.387 612.911L795.797 613.984ZM798.413 609.233L798.35 609.221L785.728 605.285L783.355 604.346L786.701 601.573C786.701 601.573 792.631 603.752 794.632 604.357C796.041 604.783 800.301 605.802 800.301 605.802L798.413 609.233ZM800.7 605.904L802.201 606.287L806.588 607.009C804.569 607.183 802.551 606.835 800.7 605.904ZM783.95 595.845L778.683 592.385L780.476 593.057L801.425 603.051L783.95 595.845ZM804.833 601.987C806.333 602.956 811.01 605.604 811.01 605.604L808.75 605.346C808.75 605.346 807.08 604.229 806.505 603.888C802.359 601.428 793.87 596.815 789.53 594.722C787.998 593.985 783.287 592.059 783.287 592.059L787.956 589.773L795.43 593.219L793.077 593.628C793.077 593.628 801.796 600.024 804.833 601.987ZM803.887 599.091C802.367 598.125 797.998 594.972 797.998 594.972L801.876 594.12C801.876 594.12 807.7 597.874 809.697 599.04C810.941 599.765 814.768 601.775 814.768 601.775L815.729 602.221C814.995 603.052 814.163 603.808 813.241 604.479C813.24 604.48 806.159 600.537 803.887 599.091ZM841.652 609.507L840.068 610.234L839.409 610.542C839.468 610.607 839.507 610.681 839.522 610.756C839.538 610.831 839.528 610.903 839.495 610.965L839.322 611.287C839.287 611.348 839.231 611.394 839.159 611.42C839.087 611.447 839.003 611.452 838.917 611.437L839.011 612.158L839.241 613.887L835.618 611.892L837.203 611.16L837.864 610.855C837.804 610.791 837.764 610.718 837.748 610.643C837.732 610.568 837.742 610.496 837.775 610.436L837.949 610.111C837.985 610.051 838.042 610.005 838.114 609.978C838.187 609.952 838.271 609.946 838.358 609.963L838.261 609.24L838.029 607.513L839.839 608.507L841.652 609.507ZM830.966 599.529C830.976 599.595 830.996 599.661 831.026 599.725C831.706 599.928 832.371 600.206 833.002 600.553C836.832 602.665 838.606 606.793 836.967 609.779C835.323 612.766 830.885 613.477 827.05 611.366C826.403 611.008 825.819 610.595 825.295 610.141C825.223 610.148 825.156 610.166 825.097 610.194C824.916 610.274 825.027 610.304 824.777 610.167L824.648 610.095C824.545 610.039 824.529 610.018 824.525 609.961C824.518 609.858 824.511 609.754 824.524 609.656C824.527 609.581 824.539 609.502 824.556 609.422C823.535 608.311 822.851 607.029 822.59 605.734C822.328 604.439 822.5 603.188 823.084 602.135C823.663 601.08 824.628 600.267 825.861 599.796C827.094 599.326 828.541 599.217 830.026 599.485C830.087 599.428 830.146 599.376 830.205 599.329C830.285 599.27 830.374 599.217 830.465 599.169C830.517 599.142 830.544 599.144 830.647 599.2L830.778 599.273C831.025 599.411 830.94 599.332 830.966 599.529ZM819.588 589.166C819.906 590.907 819.89 592.758 819.525 594.616L818.641 593.688C818.641 593.688 812.809 588.357 810.783 586.654C810.356 586.297 809.475 585.604 809.026 585.27C807.044 583.801 800.907 579.616 800.907 579.616L805.977 577.817C805.977 577.817 810.603 581.226 812.073 582.437C814.03 584.049 819.588 589.166 819.588 589.166ZM809.45 575.07C810.763 575.983 814.56 578.886 814.56 578.886L814.849 579.376L813.958 580.996C815.538 581.866 816.809 583.095 817.765 584.548L817.959 584.9L810.847 578.997L805.751 572.682C805.751 572.682 808.547 574.443 809.45 575.07ZM813.722 572.929C814.549 573.57 816.933 575.591 816.933 575.591L815.89 577.485C815.89 577.485 812.481 574.841 811.304 574.004C810.378 573.346 807.511 571.484 807.511 571.484L810.528 570.618C810.528 570.618 812.946 572.328 813.722 572.929ZM813.461 565.383L819.14 571.583L817.835 573.953C817.835 573.953 816.126 572.341 815.514 571.842C814.696 571.177 812.08 569.35 812.08 569.35L809.596 566.028L813.461 565.383Z" fill="#0D0D0D"/>
<path d="M825.78 606.79C826.225 606.163 826.723 605.712 827.276 605.421C827.792 605.145 828.145 604.504 828.104 603.923C828.055 603.302 828.167 602.636 828.458 601.925C828.641 601.484 829.016 600.764 829.448 600.163C828.243 600.035 827.092 600.194 826.117 600.621C825.142 601.048 824.379 601.728 823.909 602.59C823.431 603.448 823.264 604.457 823.425 605.509C823.585 606.562 824.067 607.619 824.82 608.569C825.081 607.945 825.402 607.351 825.78 606.79ZM833.522 603.117C833.478 603.887 833.099 604.554 832.457 604.989C832.098 605.239 831.633 605.368 831.124 605.359C830.143 605.344 829.733 604.959 828.967 604.812C828.301 604.679 828.023 605.184 828.488 605.682C829.025 606.245 829.568 606.389 830.103 607.209C830.412 607.676 830.518 608.108 830.505 608.535C830.483 609.305 830.121 609.987 829.494 610.434C828.913 610.849 828.173 610.932 827.266 610.65C827.308 610.675 827.357 610.702 827.402 610.726C830.784 612.588 834.701 611.966 836.148 609.329C837.596 606.699 836.03 603.055 832.65 601.194C832.605 601.168 832.555 601.142 832.508 601.117C833.24 601.735 833.559 602.402 833.522 603.117ZM834.771 606.743C834.951 607.311 834.887 607.954 834.597 608.474C834.312 608.999 833.803 609.396 833.227 609.548C832.655 609.702 832.019 609.606 831.559 609.296C832.083 609.318 832.548 609.197 832.937 608.979C833.33 608.761 833.638 608.439 833.846 608.061C834.054 607.683 834.157 607.25 834.132 606.802C834.113 606.358 833.967 605.903 833.667 605.469C834.176 605.692 834.596 606.176 834.771 606.743Z" fill="#0D0D0D"/>
</g>
<g clip-path="url(#clip5_1_2)">
<path d="M521.631 208.554L514.55 203.829L513.828 205.901L507.739 206.271L507.757 204.878L500.097 201.044L499.985 210.106L497.745 207.967L497.858 201.876L490.108 200.883L490.031 204.54L489.797 201.854L484.118 205.392L484.208 200.809L476.458 199.813L476.422 200.95L469.307 206.651L469.422 207.656L460.941 209.341L465.908 219.044L462.492 223.247L468.466 235.57L467.002 235.718L475.168 273.016C484.25 279.695 512.162 276.869 519.722 268.505L520.226 231.781L522.72 221.656L518.568 217.443L521.631 208.554ZM515.493 207.293L519.01 209.642L517.4 214.368L517.743 212.974L514.562 210.16L515.493 207.293ZM515.465 213.891L513.865 219.641L510.542 217.118L511.788 210.771L515.465 213.891ZM507.733 208.788L510.125 208.633L508.062 218.989L507.733 208.788ZM501.932 204.657L505.79 206.573L506.238 220.778L503.431 218.708L503.915 213.603L501.948 211.887L501.932 204.657ZM498.343 211.601L501.82 214.749L501.575 217.471L499.222 215.966L499.353 218.047C499.353 218.047 499.487 228.631 499.257 232.122C499.096 234.562 498.041 241.754 498.041 241.754C498.041 241.754 497.543 235.35 497.45 233.212C497.348 230.845 497.327 226.115 497.411 223.761C497.523 220.7 498.343 211.601 498.343 211.601ZM492.382 221.777C492.07 217.242 491.966 203.634 491.966 203.634L495.849 204.132C495.849 204.132 495.31 227.875 495.65 235.808C495.748 238.089 496.488 244.911 496.488 244.911C496.192 244.972 495.888 245.017 495.585 245.062L494.277 238.189C494.276 238.189 492.667 225.897 492.382 221.777ZM493.668 245.238C493.543 245.241 493.417 245.247 493.293 245.248L492.305 238.013L493.668 245.238ZM488.182 205.649L490.486 222.186L490.885 226.911L489.319 225.484L487.295 213.456L484.982 212.1L484.488 208.02L488.182 205.649ZM478.316 202.565L482.199 203.064L482.173 210.549L478.257 208.573L478.316 202.565ZM475.139 204.897C475.139 204.897 476.073 212.996 476.486 215.679C476.798 217.698 477.961 223.705 477.961 223.705L476.766 218.724L474.35 218.064L471.984 212.544L471.391 207.949L475.139 204.897ZM464.294 211.21L468.743 210.341L471.901 217.369L468.426 216.34L469.995 223.57L464.294 211.21ZM470.205 235.394L464.802 223.904L466.913 221.331L471.423 235.271L470.205 235.394ZM475.601 234.848L475.575 234.79L471.644 222.166L471.069 219.68L475.252 220.858C475.252 220.858 476.828 226.977 477.466 228.967C477.916 230.369 479.497 234.454 479.497 234.454L475.601 234.848ZM479.639 234.84L480.177 236.292L482.075 240.313C480.785 238.75 479.925 236.892 479.639 234.84ZM478.404 215.34L478.259 209.04L478.725 210.898L482.4 233.816L478.404 215.34ZM485.211 236.016C485.266 237.802 485.744 243.154 485.744 243.154L484.671 241.148C484.671 241.148 484.642 239.139 484.596 238.472C484.265 233.662 483.24 224.056 482.497 219.295C482.233 217.615 481.143 212.645 481.143 212.645L485.677 215.188L487.086 223.297L485.412 221.593C485.412 221.593 485.102 232.401 485.211 236.016ZM487.057 233.592C486.989 231.793 487.102 226.407 487.102 226.407L490.006 229.114C490.006 229.114 490.224 236.039 490.4 238.345C490.51 239.781 491.029 244.072 491.029 244.072L491.208 245.116C490.107 244.985 489.012 244.729 487.936 244.351C487.935 244.352 487.158 236.284 487.057 233.592ZM499.937 270.59L498.439 269.699L497.811 269.332C497.791 269.417 497.752 269.491 497.7 269.546C497.647 269.602 497.582 269.635 497.512 269.643L497.149 269.684C497.079 269.689 497.009 269.669 496.946 269.625C496.884 269.58 496.831 269.514 496.795 269.435L496.255 269.922L494.963 271.093L494.546 266.979L496.049 267.868L496.676 268.237C496.694 268.152 496.732 268.077 496.785 268.022C496.837 267.967 496.902 267.933 496.971 267.927L497.336 267.886C497.406 267.88 497.477 267.901 497.54 267.946C497.603 267.991 497.655 268.057 497.691 268.137L498.231 267.647L499.52 266.475L499.73 268.53L499.937 270.59ZM502.078 256.127C502.03 256.173 501.988 256.227 501.952 256.288C502.171 256.963 502.32 257.668 502.393 258.385C502.83 262.736 500.44 266.541 497.052 266.888C493.66 267.233 490.553 263.984 490.113 259.628C490.04 258.892 490.048 258.177 490.124 257.488C490.078 257.433 490.025 257.388 489.968 257.356C489.799 257.252 489.837 257.36 489.809 257.076L489.794 256.93C489.782 256.813 489.79 256.788 489.835 256.752C489.915 256.688 489.997 256.623 490.085 256.578C490.148 256.538 490.221 256.503 490.295 256.472C490.63 255 491.297 253.709 492.214 252.758C493.131 251.807 494.258 251.238 495.457 251.121C496.654 250.998 497.871 251.33 498.959 252.078C500.047 252.825 500.958 253.955 501.581 255.328C501.663 255.346 501.739 255.366 501.811 255.387C501.905 255.42 502 255.463 502.091 255.51C502.142 255.538 502.156 255.561 502.169 255.678L502.183 255.828C502.209 256.109 502.226 255.994 502.078 256.127ZM504.144 240.877C502.892 242.127 501.36 243.166 499.623 243.921L499.885 242.665C499.885 242.665 500.959 234.838 501.21 232.203C501.261 231.649 501.331 230.53 501.351 229.971C501.434 227.505 501.392 220.077 501.392 220.077L505.753 223.228C505.753 223.228 505.574 228.971 505.413 230.869C505.198 233.396 504.144 240.877 504.144 240.877ZM509.986 224.526C509.981 226.125 509.748 230.899 509.748 230.899L509.51 231.415L507.67 231.602C507.852 233.396 507.562 235.14 506.909 236.753L506.73 237.112L507.548 227.906L509.85 220.124C509.85 220.124 509.989 223.427 509.986 224.526ZM514.175 226.826C514.118 227.87 513.809 230.98 513.809 230.98L511.657 231.198C511.657 231.198 511.896 226.89 511.916 225.446C511.932 224.31 511.836 220.892 511.836 220.892L514.262 222.884C514.262 222.884 514.229 225.845 514.175 226.826ZM520.237 222.324L518.36 230.519L515.668 230.792C515.668 230.792 516.025 228.47 516.088 227.683C516.17 226.632 516.188 223.441 516.188 223.441L517.511 219.509L520.237 222.324Z" fill="#0D0D0D"/>
<path d="M493.157 255.984C493.926 255.994 494.58 256.147 495.133 256.438C495.654 256.705 496.381 256.632 496.837 256.268C497.321 255.875 497.932 255.588 498.682 255.425C499.149 255.325 499.955 255.223 500.695 255.238C500.115 254.174 499.331 253.316 498.426 252.757C497.52 252.197 496.527 251.955 495.551 252.058C494.574 252.152 493.649 252.588 492.873 253.318C492.098 254.048 491.502 255.045 491.147 256.204C491.809 256.065 492.481 255.991 493.157 255.984ZM500.578 260.269C499.919 260.67 499.155 260.737 498.433 260.456C498.022 260.302 497.652 259.993 497.371 259.569C496.825 258.753 496.91 258.197 496.595 257.483C496.326 256.859 495.753 256.917 495.608 257.583C495.449 258.345 495.639 258.873 495.268 259.78C495.059 260.3 494.764 260.631 494.405 260.863C493.759 261.283 492.992 261.373 492.268 261.11C491.596 260.868 491.108 260.306 490.825 259.4C490.828 259.448 490.833 259.504 490.839 259.554C491.228 263.396 493.965 266.266 496.957 265.959C499.944 265.656 502.054 262.297 501.665 258.458C501.661 258.408 501.654 258.351 501.648 258.299C501.555 259.252 501.187 259.893 500.578 260.269ZM498.303 263.357C497.938 263.827 497.373 264.14 496.78 264.197C496.185 264.261 495.57 264.067 495.118 263.679C494.666 263.296 494.383 262.718 494.377 262.163C494.657 262.608 495.021 262.921 495.422 263.117C495.824 263.317 496.264 263.387 496.693 263.344C497.122 263.301 497.538 263.139 497.892 262.864C498.246 262.596 498.538 262.217 498.724 261.725C498.83 262.27 498.67 262.891 498.303 263.357Z" fill="#0D0D0D"/>
</g>
<g clip-path="url(#clip6_1_2)">
<path d="M754.648 853.805C755.134 851.676 754.995 849.228 754.008 846.562C754.599 845.682 755.087 844.769 755.512 843.839C756.249 843.68 756.987 843.448 757.685 843.074C762.336 840.571 762.452 833.66 762.108 829.763C762.07 829.374 761.966 828.984 761.8 828.606C762.39 827.661 762.822 826.633 763.078 825.514C769.286 798.328 735.937 767.45 688.736 756.678C641.535 745.905 598.092 759.256 591.887 786.444C591.632 787.56 591.578 788.677 591.697 789.784C591.386 790.051 591.125 790.355 590.922 790.686C588.922 794.046 586.03 800.311 589.119 804.577C589.087 806.477 589.314 808.447 589.88 810.474C588.568 811.989 587.664 813.727 587.217 815.591C586.822 817.325 586.646 819.054 586.65 820.784C584.579 823.127 583.164 825.833 582.489 828.742C577.844 849.109 587.111 876.763 657.655 892.863C728.198 908.963 748.546 888.068 753.193 867.703C753.847 864.791 753.747 861.74 752.899 858.731C753.656 857.175 754.252 855.539 754.648 853.805ZM757.292 824.194C754.677 835.654 720.847 836.033 673.111 825.138C625.375 814.243 595.061 799.222 597.676 787.765C603.327 763.002 643.728 751.029 687.733 761.072C731.738 771.115 762.944 799.431 757.292 824.194ZM658.657 888.469C605.862 876.42 582.182 856.771 588.277 830.065C588.333 829.82 588.396 829.574 588.466 829.332C595.369 848.667 620.116 863.306 662.211 872.913C704.303 882.519 732.944 880.068 747.554 865.647C747.51 865.893 747.46 866.139 747.405 866.382C741.309 893.091 711.453 900.518 658.657 888.469ZM750.676 851.542L750.655 851.488L750.419 851.866C740.383 863.765 716.403 868.114 673.554 859.397L656.999 867.012C656.583 866.91 656.146 866.81 655.734 866.707L642.876 851.572C610.843 841.467 595.323 828.92 591.874 815.787L591.814 815.238L591.742 815.312C591.708 815.168 591.655 815.027 591.623 814.884C594.927 821.57 601.662 828.685 613.167 835.686C622.193 841.18 630.569 844.429 638.124 845.976L628.168 834.257C624.555 832.629 621.075 830.793 617.759 828.763C613.807 826.379 610.112 823.718 606.726 820.814C607.609 821.293 608.555 821.697 609.635 821.944C611.939 822.47 614.308 822.363 616.397 822.267C617.031 822.24 617.935 822.198 618.647 822.203C618.853 822.687 619.072 823.276 619.236 823.729C620.172 826.274 621.449 829.751 625.378 831.631C626.089 831.968 626.854 832.233 627.656 832.416C630.675 833.105 633.547 832.516 636.08 831.998C636.681 831.873 637.479 831.711 638.125 831.613C638.426 832.071 638.754 832.635 639.005 833.067C640.41 835.465 642.334 838.751 646.43 840.137C646.783 840.258 647.135 840.355 647.494 840.437C651.077 841.255 654.312 840.143 656.913 839.246C657.462 839.056 658.18 838.807 658.777 838.633C659.15 839.067 659.573 839.602 659.898 840.016C661.764 842.383 664.087 845.335 668.286 846.293C672.486 847.252 675.856 845.602 678.567 844.277C679.04 844.045 679.65 843.745 680.177 843.517C680.643 843.934 681.178 844.469 681.591 844.876C683.543 846.811 685.977 849.22 689.56 850.038C689.916 850.119 690.282 850.184 690.643 850.23C691.623 850.349 692.604 850.338 693.546 850.198L685.496 853.903C692.63 856.962 701.649 859.085 712.816 859.696C734.941 860.911 747.655 855.24 753.488 847.267C752.729 848.774 751.787 850.206 750.676 851.542ZM596.583 808.752L596.97 808.842C597.636 808.994 598.335 809.132 599.039 809.276C599.622 809.39 600.208 809.505 600.778 809.635C601.07 809.702 601.306 809.763 601.499 809.814C601.568 810.31 601.614 810.934 601.649 811.41C601.785 813.215 601.983 815.472 603.208 817.533C600.303 814.56 598.109 811.619 596.583 808.752ZM695.661 849.658C697.502 849.009 699.051 847.987 700.407 847.076C700.827 846.797 701.37 846.431 701.836 846.149C702.373 846.519 703.017 847.008 703.507 847.382C705.561 848.95 707.888 850.722 710.909 851.412C711.708 851.594 712.515 851.688 713.303 851.693C717.658 851.703 720.32 849.123 722.264 847.236C722.612 846.9 723.062 846.465 723.457 846.121C724.1 846.423 724.9 846.856 725.456 847.155C727.3 848.147 729.385 849.272 731.692 849.798C732.331 849.944 732.952 850.012 733.57 850.055C727.491 851.555 720.024 852.224 710.954 851.725C705.837 851.461 700.711 850.768 695.661 849.658ZM740.526 847.731C741.849 846.507 742.726 845.026 743.446 843.781C743.683 843.37 743.996 842.825 744.27 842.41C744.463 842.445 744.699 842.494 744.983 842.559C745.556 842.689 746.139 842.842 746.721 842.989C747.103 843.088 747.473 843.175 747.85 843.27C745.718 845.049 743.252 846.551 740.526 847.731ZM754.178 839.186C753.175 839.724 751.575 839.516 749.795 839.11C748.568 838.83 747.25 838.455 745.991 838.168C744.28 837.777 742.662 837.544 741.47 837.907C738.442 838.833 737.765 844.897 734.222 845.492C733.75 845.569 733.241 845.531 732.697 845.407C729.974 844.785 726.478 842.037 723.593 841.376C723.12 841.26 722.633 841.215 722.158 841.244C718.794 841.494 716.348 847.128 712.712 847.117C712.446 847.115 712.177 847.083 711.915 847.021C708.87 846.326 705.451 842.054 702.267 841.328C702.05 841.278 701.835 841.246 701.616 841.229C698.149 840.997 694.535 846.144 690.912 845.702C690.797 845.685 690.677 845.665 690.564 845.639C687.285 844.891 684.408 839.496 681.016 838.722L680.833 838.685C677.355 838.071 672.844 842.705 669.293 841.895C665.739 841.084 663.691 834.952 660.292 833.997C660.23 833.98 660.169 833.965 660.107 833.95C656.715 833.176 651.78 836.788 648.504 836.04C648.389 836.014 648.275 835.982 648.163 835.945C644.707 834.772 643.692 828.568 640.459 827.271C640.256 827.19 640.046 827.125 639.83 827.078C636.647 826.351 631.71 828.716 628.662 828.02C628.399 827.962 628.143 827.875 627.902 827.761C624.619 826.19 624.86 820.05 621.933 818.37C621.518 818.138 621.06 817.967 620.584 817.866C617.701 817.208 613.365 818.17 610.641 817.548C610.097 817.424 609.616 817.235 609.222 816.959C606.292 814.881 608.304 809.122 605.985 806.981C605.062 806.128 603.496 805.637 601.783 805.246C600.527 804.959 599.191 804.729 597.972 804.45C596.184 804.042 594.646 803.536 593.977 802.61C592.92 801.155 593.622 798.495 594.497 796.343C604.425 809.842 638.726 821.911 672.112 829.531C705.501 837.151 741.639 841.158 756.437 833.302C756.291 835.626 755.765 838.331 754.178 839.186Z" fill="#0D0D0D"/>
<path d="M632.436 776.233L628.806 771.938L623.672 774.233L627.303 778.527L632.436 776.233ZM650.141 778.044L655.273 775.748L651.646 771.453L646.511 773.748L650.141 778.044ZM664.099 793.592L660.472 789.297L655.338 791.593L658.968 795.886L664.099 793.592ZM681.944 785.223L679.528 782.36L676.103 783.89L678.525 786.752L681.944 785.223ZM728.442 804.81L730.865 807.672L734.289 806.144L731.867 803.282L728.442 804.81ZM751.524 812.387L749.105 809.525L745.681 811.053L748.103 813.917L751.524 812.387ZM721.464 788.543L719.048 785.68L715.623 787.21L718.045 790.074L721.464 788.543ZM633.732 765.633L631.316 762.77L627.891 764.3L630.313 767.164L633.732 765.633ZM615.785 772.433L613.366 769.572L609.944 771.1L612.363 773.964L615.785 772.433ZM624.744 789.737L627.166 792.601L630.585 791.07L628.169 788.207L624.744 789.737ZM672.125 765.151L669.709 762.288L666.287 763.819L668.706 766.683L672.125 765.151ZM700.198 769.247L697.781 766.384L694.357 767.914L696.779 770.778L700.198 769.247ZM653.522 763.217L651.106 760.354L647.684 761.885L650.104 764.746L653.522 763.217ZM735.298 787.366L732.882 784.505L729.457 786.033L731.879 788.897L735.298 787.366ZM692.418 810.085L697.549 807.789L693.922 803.493L688.785 805.788L692.418 810.085ZM694.542 789.331L690.914 785.038L685.781 787.331L689.411 791.627L694.542 789.331ZM713.566 780.386L709.938 776.093L704.802 778.386L708.435 782.682L713.566 780.386ZM714.215 795.366L717.842 799.661L722.976 797.365L719.346 793.07L714.215 795.366ZM742.561 796.825L738.931 792.529L733.797 794.825L737.427 799.118L742.561 796.825ZM718.908 815.192L724.041 812.899L720.412 808.603L715.277 810.899L718.908 815.192ZM610.745 781.043L614.377 785.339L619.509 783.043L615.881 778.75L610.745 781.043Z" fill="#0D0D0D"/>
</g>
<g clip-path="url(#clip7_1_2)">
<path d="M1127.65 550.805C1128.13 548.676 1128 546.228 1127.01 543.562C1127.6 542.682 1128.09 541.769 1128.51 540.839C1129.25 540.68 1129.99 540.448 1130.68 540.074C1135.34 537.571 1135.45 530.66 1135.11 526.763C1135.07 526.374 1134.97 525.984 1134.8 525.606C1135.39 524.661 1135.82 523.633 1136.08 522.514C1142.29 495.328 1108.94 464.45 1061.74 453.678C1014.54 442.905 971.092 456.256 964.887 483.444C964.632 484.56 964.578 485.677 964.697 486.784C964.386 487.051 964.125 487.355 963.922 487.686C961.922 491.046 959.03 497.311 962.119 501.577C962.087 503.477 962.314 505.447 962.88 507.474C961.568 508.989 960.664 510.727 960.217 512.591C959.822 514.325 959.646 516.054 959.65 517.784C957.579 520.127 956.164 522.833 955.489 525.742C950.844 546.109 960.111 573.763 1030.65 589.863C1101.2 605.963 1121.55 585.068 1126.19 564.703C1126.85 561.791 1126.75 558.74 1125.9 555.731C1126.66 554.175 1127.25 552.539 1127.65 550.805ZM1130.29 521.194C1127.68 532.654 1093.85 533.033 1046.11 522.138C998.375 511.243 968.061 496.222 970.676 484.765C976.327 460.002 1016.73 448.029 1060.73 458.072C1104.74 468.115 1135.94 496.431 1130.29 521.194ZM1031.66 585.469C978.862 573.42 955.182 553.771 961.277 527.065C961.333 526.82 961.396 526.574 961.466 526.332C968.369 545.667 993.116 560.306 1035.21 569.913C1077.3 579.519 1105.94 577.068 1120.55 562.647C1120.51 562.893 1120.46 563.139 1120.4 563.382C1114.31 590.091 1084.45 597.518 1031.66 585.469ZM1123.68 548.542L1123.65 548.488L1123.42 548.866C1113.38 560.765 1089.4 565.114 1046.55 556.397L1030 564.012C1029.58 563.91 1029.15 563.81 1028.73 563.706L1015.88 548.572C983.843 538.467 968.323 525.92 964.874 512.787L964.814 512.238L964.742 512.312C964.708 512.168 964.655 512.027 964.623 511.884C967.927 518.57 974.662 525.685 986.167 532.686C995.193 538.18 1003.57 541.429 1011.12 542.976L1001.17 531.257C997.555 529.629 994.075 527.793 990.759 525.763C986.807 523.379 983.112 520.718 979.726 517.814C980.609 518.293 981.555 518.697 982.635 518.944C984.939 519.47 987.308 519.363 989.397 519.267C990.031 519.24 990.935 519.198 991.647 519.203C991.853 519.687 992.072 520.276 992.236 520.729C993.172 523.274 994.449 526.751 998.378 528.631C999.089 528.968 999.854 529.233 1000.66 529.416C1003.67 530.105 1006.55 529.516 1009.08 528.998C1009.68 528.873 1010.48 528.711 1011.13 528.613C1011.43 529.071 1011.75 529.635 1012.01 530.067C1013.41 532.465 1015.33 535.751 1019.43 537.137C1019.78 537.258 1020.14 537.355 1020.49 537.437C1024.08 538.255 1027.31 537.143 1029.91 536.246C1030.46 536.056 1031.18 535.807 1031.78 535.633C1032.15 536.067 1032.57 536.602 1032.9 537.016C1034.76 539.383 1037.09 542.335 1041.29 543.293C1045.49 544.252 1048.86 542.602 1051.57 541.277C1052.04 541.045 1052.65 540.745 1053.18 540.517C1053.64 540.934 1054.18 541.469 1054.59 541.876C1056.54 543.811 1058.98 546.22 1062.56 547.038C1062.92 547.119 1063.28 547.184 1063.64 547.23C1064.62 547.349 1065.6 547.338 1066.55 547.198L1058.5 550.903C1065.63 553.962 1074.65 556.085 1085.82 556.696C1107.94 557.911 1120.65 552.24 1126.49 544.267C1125.73 545.774 1124.79 547.206 1123.68 548.542ZM969.583 505.752L969.97 505.842C970.636 505.994 971.335 506.132 972.039 506.276C972.622 506.39 973.208 506.505 973.778 506.635C974.07 506.702 974.306 506.763 974.499 506.814C974.568 507.31 974.614 507.934 974.649 508.41C974.785 510.215 974.983 512.472 976.208 514.533C973.303 511.56 971.109 508.619 969.583 505.752ZM1068.66 546.658C1070.5 546.009 1072.05 544.987 1073.41 544.076C1073.83 543.797 1074.37 543.431 1074.84 543.149C1075.37 543.519 1076.02 544.008 1076.51 544.382C1078.56 545.95 1080.89 547.722 1083.91 548.412C1084.71 548.594 1085.52 548.688 1086.3 548.693C1090.66 548.703 1093.32 546.123 1095.26 544.236C1095.61 543.9 1096.06 543.465 1096.46 543.121C1097.1 543.423 1097.9 543.856 1098.46 544.155C1100.3 545.147 1102.39 546.272 1104.69 546.798C1105.33 546.944 1105.95 547.012 1106.57 547.055C1100.49 548.555 1093.02 549.224 1083.95 548.725C1078.84 548.461 1073.71 547.768 1068.66 546.658ZM1113.53 544.731C1114.85 543.507 1115.73 542.026 1116.45 540.781C1116.68 540.37 1117 539.825 1117.27 539.41C1117.46 539.445 1117.7 539.494 1117.98 539.559C1118.56 539.689 1119.14 539.842 1119.72 539.989C1120.1 540.088 1120.47 540.175 1120.85 540.27C1118.72 542.049 1116.25 543.551 1113.53 544.731ZM1127.18 536.186C1126.18 536.724 1124.58 536.516 1122.8 536.11C1121.57 535.83 1120.25 535.455 1118.99 535.168C1117.28 534.777 1115.66 534.544 1114.47 534.907C1111.44 535.833 1110.76 541.897 1107.22 542.492C1106.75 542.569 1106.24 542.531 1105.7 542.407C1102.97 541.785 1099.48 539.037 1096.59 538.376C1096.12 538.26 1095.63 538.215 1095.16 538.244C1091.79 538.494 1089.35 544.128 1085.71 544.117C1085.45 544.115 1085.18 544.083 1084.91 544.021C1081.87 543.326 1078.45 539.054 1075.27 538.328C1075.05 538.278 1074.83 538.246 1074.62 538.229C1071.15 537.997 1067.54 543.144 1063.91 542.702C1063.8 542.685 1063.68 542.665 1063.56 542.639C1060.28 541.891 1057.41 536.496 1054.02 535.722L1053.83 535.685C1050.36 535.071 1045.84 539.705 1042.29 538.895C1038.74 538.084 1036.69 531.952 1033.29 530.997C1033.23 530.98 1033.17 530.965 1033.11 530.95C1029.72 530.176 1024.78 533.788 1021.5 533.04C1021.39 533.014 1021.27 532.982 1021.16 532.945C1017.71 531.772 1016.69 525.568 1013.46 524.271C1013.26 524.19 1013.05 524.125 1012.83 524.078C1009.65 523.351 1004.71 525.716 1001.66 525.02C1001.4 524.962 1001.14 524.875 1000.9 524.761C997.619 523.19 997.86 517.05 994.933 515.37C994.518 515.138 994.06 514.967 993.584 514.866C990.701 514.208 986.365 515.17 983.641 514.548C983.097 514.424 982.616 514.235 982.222 513.959C979.292 511.881 981.304 506.122 978.985 503.981C978.062 503.128 976.496 502.637 974.783 502.246C973.527 501.959 972.191 501.728 970.972 501.45C969.184 501.042 967.646 500.536 966.977 499.61C965.92 498.155 966.622 495.495 967.497 493.343C977.425 506.842 1011.73 518.911 1045.11 526.531C1078.5 534.151 1114.64 538.158 1129.44 530.302C1129.29 532.626 1128.76 535.331 1127.18 536.186Z" fill="#0D0D0D"/>
<path d="M1005.44 473.233L1001.81 468.938L996.672 471.233L1000.3 475.527L1005.44 473.233ZM1023.14 475.044L1028.27 472.748L1024.65 468.453L1019.51 470.748L1023.14 475.044ZM1037.1 490.592L1033.47 486.297L1028.34 488.593L1031.97 492.886L1037.1 490.592ZM1054.94 482.223L1052.53 479.36L1049.1 480.89L1051.53 483.752L1054.94 482.223ZM1101.44 501.81L1103.86 504.672L1107.29 503.144L1104.87 500.282L1101.44 501.81ZM1124.52 509.387L1122.11 506.525L1118.68 508.053L1121.1 510.917L1124.52 509.387ZM1094.46 485.543L1092.05 482.68L1088.62 484.21L1091.04 487.074L1094.46 485.543ZM1006.73 462.633L1004.32 459.77L1000.89 461.3L1003.31 464.164L1006.73 462.633ZM988.785 469.433L986.366 466.572L982.944 468.1L985.363 470.964L988.785 469.433ZM997.744 486.737L1000.17 489.601L1003.58 488.07L1001.17 485.207L997.744 486.737ZM1045.12 462.151L1042.71 459.288L1039.29 460.819L1041.71 463.683L1045.12 462.151ZM1073.2 466.247L1070.78 463.384L1067.36 464.914L1069.78 467.778L1073.2 466.247ZM1026.52 460.217L1024.11 457.354L1020.68 458.885L1023.1 461.746L1026.52 460.217ZM1108.3 484.366L1105.88 481.505L1102.46 483.033L1104.88 485.897L1108.3 484.366ZM1065.42 507.085L1070.55 504.789L1066.92 500.493L1061.79 502.788L1065.42 507.085ZM1067.54 486.331L1063.91 482.038L1058.78 484.331L1062.41 488.627L1067.54 486.331ZM1086.57 477.386L1082.94 473.093L1077.8 475.386L1081.43 479.682L1086.57 477.386ZM1087.22 492.366L1090.84 496.661L1095.98 494.365L1092.35 490.07L1087.22 492.366ZM1115.56 493.825L1111.93 489.529L1106.8 491.825L1110.43 496.118L1115.56 493.825ZM1091.91 512.192L1097.04 509.899L1093.41 505.603L1088.28 507.899L1091.91 512.192ZM983.745 478.043L987.377 482.339L992.509 480.043L988.881 475.75L983.745 478.043Z" fill="#0D0D0D"/>
</g>
<g clip-path="url(#clip8_1_2)">
<path d="M563.185 517.235C563.398 516.299 563.291 515.213 562.75 514.018C563.036 513.637 563.269 513.24 563.47 512.835C563.841 512.776 564.211 512.684 564.558 512.529C566.875 511.492 566.828 508.434 566.594 506.703C566.569 506.53 566.511 506.356 566.421 506.186C566.705 505.776 566.908 505.328 567.02 504.836C569.748 492.893 552.391 478.71 528.327 473.218C504.264 467.726 482.472 472.974 479.746 484.918C479.634 485.408 479.624 485.902 479.701 486.394C479.548 486.507 479.42 486.638 479.322 486.782C478.361 488.239 476.993 490.969 478.622 492.905C478.635 493.746 478.78 494.621 479.098 495.528C478.456 496.179 478.025 496.934 477.828 497.753C477.654 498.515 477.591 499.278 477.62 500.044C476.607 501.05 475.932 502.226 475.635 503.504C473.594 512.452 478.709 524.839 514.673 533.047C550.636 541.255 560.619 532.313 562.661 523.367C562.947 522.087 562.85 520.734 562.375 519.389C562.734 518.712 563.011 517.997 563.185 517.235ZM564.071 504.163C562.922 509.197 545.799 508.848 521.463 503.294C497.127 497.74 481.549 490.625 482.697 485.591C485.18 474.712 505.453 470.028 527.887 475.148C550.321 480.269 566.554 493.284 564.071 504.163ZM515.113 531.116C488.198 524.973 475.908 515.911 478.586 504.178C478.61 504.071 478.638 503.963 478.67 503.857C482.461 512.524 495.214 519.384 516.675 524.282C538.133 529.18 552.598 528.532 559.774 522.37C559.756 522.478 559.734 522.586 559.71 522.693C557.032 534.427 542.029 537.259 515.113 531.116ZM561.139 516.172L561.128 516.147L561.014 516.311C556.115 521.427 544.04 522.986 522.211 518.471L513.945 521.589C513.733 521.538 513.511 521.487 513.301 521.435L506.559 514.537C490.185 509.572 482.136 503.779 480.188 497.911L480.149 497.667L480.114 497.699C480.095 497.634 480.066 497.571 480.048 497.507C481.823 500.518 485.341 503.772 491.274 507.048C495.928 509.619 500.218 511.185 504.067 511.986L498.847 506.645C496.993 505.869 495.203 505.002 493.493 504.052C491.455 502.937 489.544 501.702 487.785 500.364C488.239 500.59 488.725 500.783 489.275 500.909C490.45 501.177 491.647 501.166 492.704 501.155C493.024 501.153 493.482 501.148 493.842 501.161C493.954 501.379 494.074 501.643 494.164 501.846C494.677 502.987 495.376 504.546 497.394 505.439C497.76 505.599 498.151 505.728 498.56 505.822C500.099 506.173 501.544 505.956 502.818 505.765C503.121 505.719 503.522 505.66 503.848 505.626C504.007 505.833 504.182 506.088 504.316 506.283C505.064 507.367 506.088 508.851 508.183 509.528C508.364 509.587 508.544 509.635 508.727 509.677C510.553 510.094 512.174 509.651 513.478 509.293C513.753 509.218 514.112 509.118 514.412 509.05C514.607 509.248 514.829 509.492 515.001 509.68C515.981 510.757 517.203 512.099 519.344 512.588C521.485 513.076 523.166 512.397 524.518 511.852C524.754 511.757 525.058 511.633 525.322 511.54C525.564 511.732 525.843 511.977 526.058 512.164C527.076 513.051 528.345 514.154 530.172 514.571C530.354 514.613 530.54 514.647 530.723 514.673C531.222 514.741 531.718 514.751 532.193 514.703L528.174 516.221C531.832 517.684 536.431 518.762 542.095 519.204C553.316 520.08 559.666 517.763 562.497 514.322C562.136 514.978 561.681 515.597 561.139 516.172ZM482.465 494.868L482.662 494.914C483.002 494.991 483.358 495.063 483.717 495.138C484.013 495.197 484.312 495.257 484.603 495.323C484.752 495.357 484.872 495.388 484.97 495.413C485.013 495.634 485.046 495.911 485.071 496.122C485.167 496.924 485.302 497.926 485.954 498.857C484.437 497.497 483.281 496.161 482.465 494.868ZM533.255 514.496C534.178 514.237 534.946 513.808 535.619 513.426C535.827 513.308 536.097 513.155 536.328 513.037C536.606 513.209 536.939 513.435 537.193 513.609C538.257 514.334 539.462 515.155 541.003 515.506C541.41 515.599 541.82 515.653 542.219 515.667C544.424 515.738 545.733 514.636 546.688 513.831C546.859 513.687 547.08 513.501 547.275 513.355C547.605 513.499 548.017 513.703 548.303 513.843C549.252 514.311 550.325 514.841 551.501 515.109C551.827 515.184 552.142 515.223 552.455 515.252C549.4 515.823 545.63 516.005 541.03 515.646C538.435 515.45 535.829 515.065 533.255 514.496ZM555.942 514.329C556.593 513.807 557.014 513.165 557.36 512.625C557.473 512.446 557.624 512.21 557.756 512.03C557.855 512.048 557.975 512.074 558.119 512.107C558.411 512.173 558.709 512.25 559.006 512.324C559.201 512.374 559.389 512.418 559.582 512.466C558.53 513.221 557.304 513.848 555.942 514.329ZM562.723 510.754C562.224 510.977 561.411 510.86 560.503 510.653C559.877 510.511 559.204 510.324 558.562 510.178C557.69 509.979 556.867 509.851 556.27 509.994C554.751 510.357 554.5 513.032 552.716 513.241C552.478 513.268 552.22 513.244 551.942 513.18C550.554 512.863 548.742 511.593 547.271 511.256C547.03 511.197 546.783 511.17 546.543 511.176C544.843 511.235 543.691 513.692 541.85 513.632C541.715 513.627 541.578 513.608 541.444 513.577C539.892 513.223 538.096 511.279 536.473 510.908C536.362 510.883 536.253 510.866 536.142 510.855C534.383 510.699 532.632 512.923 530.79 512.672C530.732 512.663 530.671 512.652 530.613 512.639C528.941 512.257 527.402 509.825 525.673 509.43L525.58 509.411C523.81 509.085 521.597 511.069 519.786 510.656C517.974 510.242 516.844 507.496 515.108 507.021C515.077 507.012 515.045 507.004 515.014 506.997C513.284 506.602 510.841 508.126 509.171 507.745C509.112 507.732 509.054 507.716 508.997 507.698C507.229 507.125 506.62 504.363 504.963 503.739C504.859 503.7 504.752 503.668 504.642 503.644C503.019 503.273 500.556 504.245 499.002 503.89C498.868 503.861 498.737 503.818 498.613 503.764C496.927 503.018 496.955 500.303 495.447 499.514C495.234 499.405 494.999 499.323 494.756 499.271C493.287 498.935 491.106 499.295 489.717 498.978C489.44 498.914 489.194 498.824 488.99 498.695C487.475 497.73 488.405 495.211 487.198 494.227C486.718 493.836 485.918 493.594 485.044 493.395C484.404 493.249 483.724 493.126 483.103 492.984C482.191 492.776 481.404 492.528 481.052 492.108C480.494 491.448 480.809 490.281 481.219 489.341C486.452 495.47 504.004 501.339 521.024 505.224C538.046 509.109 556.405 511.435 563.777 508.183C563.739 509.21 563.514 510.399 562.723 510.754Z" fill="#0D0D0D"/>
<path d="M500.121 481.017L498.217 479.059L495.653 479.997L497.557 481.954L500.121 481.017ZM509.113 482.089L511.676 481.151L509.774 479.193L507.209 480.131L509.113 482.089ZM516.418 489.187L514.516 487.23L511.951 488.168L513.855 490.125L516.418 489.187ZM525.325 485.754L524.058 484.45L522.347 485.075L523.617 486.379L525.325 485.754ZM549.167 495.138L550.438 496.443L552.148 495.819L550.878 494.514L549.167 495.138ZM560.97 498.847L559.701 497.542L557.991 498.167L559.261 499.472L560.97 498.847ZM545.385 487.828L544.118 486.524L542.408 487.149L543.678 488.454L545.385 487.828ZM500.615 476.342L499.348 475.038L497.637 475.663L498.907 476.968L500.615 476.342ZM491.632 479.079L490.363 477.775L488.654 478.4L489.923 479.705L491.632 479.079ZM496.433 486.878L497.703 488.184L499.41 487.558L498.143 486.253L496.433 486.878ZM520.046 476.716L518.779 475.411L517.07 476.037L518.339 477.342L520.046 476.716ZM534.323 478.959L533.056 477.654L531.345 478.279L532.615 479.585L534.323 478.959ZM510.598 475.575L509.331 474.271L507.622 474.896L508.891 476.2L510.598 475.575ZM552.372 487.519L551.105 486.215L549.394 486.839L550.664 488.145L552.372 487.519ZM531.008 496.923L533.571 495.985L531.669 494.028L529.103 494.965L531.008 496.923ZM531.766 487.766L529.864 485.809L527.3 486.746L529.203 488.704L531.766 487.766ZM541.262 484.096L539.359 482.139L536.794 483.076L538.699 485.034L541.262 484.096ZM541.819 490.739L543.722 492.696L546.286 491.758L544.382 489.801L541.819 490.739ZM556.194 491.819L554.29 489.861L551.726 490.799L553.629 492.756L556.194 491.819ZM544.499 499.59L547.063 498.653L545.159 496.695L542.595 497.633L544.499 499.59ZM489.212 482.814L491.117 484.772L493.68 483.834L491.777 481.878L489.212 482.814Z" fill="#0D0D0D"/>
</g>
<g clip-path="url(#clip9_1_2)">
<path d="M1435.38 110.105C1436.04 107.201 1435.84 103.858 1434.46 100.214C1435.27 99.015 1435.95 97.7706 1436.53 96.503C1437.55 96.2888 1438.57 95.9741 1439.53 95.4672C1445.95 92.0679 1446.08 82.6337 1445.59 77.3121C1445.53 76.7801 1445.39 76.2484 1445.16 75.7314C1445.97 74.4441 1446.56 73.0418 1446.91 71.5152C1455.38 34.4243 1409.17 -7.8647 1343.9 -22.7617C1278.63 -37.6587 1218.64 -19.6061 1210.18 17.4857C1209.83 19.0092 1209.76 20.5342 1209.93 22.0454C1209.5 22.409 1209.14 22.8223 1208.86 23.2742C1206.11 27.8527 1202.14 36.3946 1206.42 42.2303C1206.39 44.8251 1206.71 47.5145 1207.5 50.2851C1205.69 52.3475 1204.45 54.7162 1203.84 57.2593C1203.3 59.6252 1203.07 61.9856 1203.08 64.3472C1200.23 67.5376 1198.28 71.2266 1197.36 75.1944C1191.02 102.982 1203.94 140.774 1301.49 163.038C1399.05 185.302 1427.08 156.857 1433.42 129.074C1434.31 125.1 1434.16 120.934 1432.98 116.824C1434.02 114.702 1434.84 112.471 1435.38 110.105ZM1438.91 69.6891C1435.34 85.3242 1388.59 85.7058 1322.58 70.6398C1256.57 55.5738 1214.61 34.9446 1218.18 19.3126C1225.89 -14.472 1281.68 -30.6551 1342.53 -16.7666C1403.38 -2.87804 1446.62 35.9046 1438.91 69.6891ZM1302.86 157.043C1229.85 140.38 1197.05 113.46 1205.36 77.0244C1205.44 76.69 1205.53 76.3543 1205.62 76.0244C1215.24 102.449 1249.5 122.534 1307.71 135.819C1365.92 149.104 1405.49 145.872 1425.62 126.244C1425.56 126.579 1425.49 126.915 1425.42 127.247C1417.1 163.685 1375.87 173.706 1302.86 157.043ZM1429.88 107L1429.85 106.925L1429.52 107.441C1415.7 123.645 1382.58 129.486 1323.33 117.413L1300.48 127.742C1299.91 127.601 1299.3 127.463 1298.73 127.32L1280.9 106.606C1236.59 92.6814 1215.1 75.4892 1210.28 57.5456L1210.19 56.7963L1210.09 56.8975C1210.04 56.7009 1209.97 56.5081 1209.93 56.3124C1214.52 65.4533 1223.86 75.1946 1239.78 84.7984C1252.28 92.3353 1263.87 96.8043 1274.31 98.9475L1260.51 82.908C1255.51 80.6715 1250.69 78.1498 1246.1 75.3651C1240.63 72.0955 1235.51 68.4466 1230.82 64.4694C1232.04 65.1264 1233.35 65.6825 1234.85 66.0232C1238.03 66.7503 1241.31 66.6145 1244.19 66.4916C1245.07 66.4568 1246.32 66.4033 1247.3 66.4127C1247.59 67.0744 1247.89 67.8802 1248.12 68.4994C1249.43 71.9767 1251.2 76.7288 1256.64 79.3118C1257.63 79.7744 1258.68 80.1397 1259.79 80.3927C1263.97 81.3454 1267.93 80.5533 1271.43 79.8563C1272.26 79.6874 1273.36 79.4699 1274.26 79.3382C1274.68 79.9644 1275.13 80.7363 1275.48 81.3275C1277.43 84.6071 1280.1 89.1004 1285.77 91.0093C1286.26 91.1761 1286.74 91.3101 1287.24 91.4234C1292.2 92.5543 1296.66 91.0487 1300.25 89.8353C1301.01 89.5782 1302 89.2406 1302.83 89.0052C1303.34 89.599 1303.93 90.3322 1304.38 90.898C1306.97 94.1373 1310.19 98.1761 1316 99.5016C1321.81 100.827 1326.46 98.5881 1330.2 96.79C1330.85 96.4763 1331.69 96.0691 1332.42 95.7595C1333.06 96.3302 1333.81 97.0632 1334.38 97.6205C1337.08 100.271 1340.46 103.569 1345.41 104.7C1345.9 104.812 1346.41 104.902 1346.91 104.967C1348.27 105.133 1349.62 105.122 1350.92 104.934L1339.81 109.96C1349.68 114.165 1362.16 117.099 1377.59 117.98C1408.17 119.727 1425.72 112.035 1433.75 101.175C1432.7 103.229 1431.41 105.179 1429.88 107ZM1216.76 47.9602L1217.29 48.0857C1218.21 48.2958 1219.18 48.4872 1220.15 48.6865C1220.96 48.8445 1221.77 49.0033 1222.56 49.1833C1222.96 49.2755 1223.29 49.3597 1223.55 49.4302C1223.65 50.1075 1223.72 50.9599 1223.77 51.6098C1223.96 54.0751 1224.25 57.1563 1225.95 59.9752C1221.92 55.9056 1218.88 51.8812 1216.76 47.9602ZM1353.84 104.206C1356.38 103.327 1358.52 101.938 1360.39 100.7C1360.97 100.321 1361.72 99.8236 1362.36 99.4395C1363.11 99.9479 1364 100.617 1364.68 101.131C1367.52 103.278 1370.74 105.708 1374.92 106.662C1376.03 106.914 1377.14 107.045 1378.23 107.055C1384.25 107.087 1387.92 103.575 1390.6 101.006C1391.08 100.549 1391.7 99.9571 1392.24 99.4885C1393.13 99.9035 1394.24 100.498 1395.01 100.908C1397.56 102.27 1400.45 103.814 1403.64 104.542C1404.52 104.744 1405.38 104.839 1406.23 104.9C1397.84 106.923 1387.52 107.807 1374.98 107.09C1367.91 106.708 1360.83 105.742 1353.84 104.206ZM1415.83 101.756C1417.66 100.09 1418.87 98.0717 1419.85 96.3753C1420.18 95.8144 1420.61 95.0721 1420.99 94.5067C1421.26 94.5546 1421.58 94.6224 1421.97 94.7119C1422.77 94.8928 1423.57 95.103 1424.38 95.3061C1424.91 95.4431 1425.42 95.5631 1425.94 95.6951C1423 98.1151 1419.6 100.155 1415.83 101.756ZM1434.67 90.1451C1433.28 90.8751 1431.07 90.5853 1428.61 90.0235C1426.91 89.6362 1425.09 89.1191 1423.35 88.7217C1420.98 88.1818 1418.75 87.8568 1417.1 88.348C1412.92 89.5995 1412.01 97.8752 1407.11 98.6738C1406.46 98.7761 1405.76 98.723 1405.01 98.5513C1401.24 97.6917 1396.4 93.9249 1392.41 93.0111C1391.75 92.8511 1391.08 92.7881 1390.43 92.8256C1385.78 93.1528 1382.42 100.834 1377.4 100.805C1377.03 100.801 1376.66 100.756 1376.29 100.671C1372.08 99.7097 1367.34 93.8642 1362.94 92.8594C1362.64 92.7909 1362.34 92.7459 1362.04 92.7225C1357.25 92.3912 1352.27 99.4042 1347.26 98.7856C1347.1 98.7624 1346.94 98.7342 1346.78 98.6986C1342.25 97.6636 1338.25 90.2875 1333.56 89.217L1333.31 89.1656C1328.5 88.3126 1322.28 94.622 1317.37 93.5012C1312.46 92.3794 1309.6 84.0001 1304.9 82.6826C1304.82 82.6596 1304.73 82.638 1304.65 82.618C1299.95 81.5474 1293.15 86.458 1288.62 85.4239C1288.46 85.3882 1288.3 85.3446 1288.15 85.2935C1283.37 83.6778 1281.94 75.2041 1277.47 73.4207C1277.18 73.3089 1276.89 73.2195 1276.6 73.1538C1272.19 72.149 1265.38 75.3573 1261.17 74.3954C1260.8 74.3148 1260.45 74.1945 1260.11 74.0382C1255.57 71.8804 1255.88 63.4996 1251.83 61.1937C1251.25 60.8756 1250.62 60.6404 1249.96 60.5004C1245.97 59.5905 1239.99 60.8855 1236.22 60.0259C1235.47 59.8542 1234.8 59.5949 1234.26 59.2163C1230.2 56.368 1232.96 48.5135 1229.74 45.581C1228.46 44.4128 1226.3 43.736 1223.93 43.1952C1222.19 42.7988 1220.34 42.4782 1218.66 42.0937C1216.19 41.5291 1214.06 40.8318 1213.13 39.5645C1211.66 37.5749 1212.62 33.946 1213.82 31.0109C1227.6 49.48 1275.05 66.0958 1321.22 76.6328C1367.39 87.1707 1417.35 92.7862 1437.77 82.121C1437.57 85.2925 1436.86 88.9832 1434.67 90.1451Z" fill="#0D0D0D"/>
<path d="M1266.17 3.70987L1261.14 -2.16949L1254.05 0.943853L1259.09 6.82012L1266.17 3.70987ZM1290.65 6.25278L1297.73 3.13852L1292.7 -2.73992L1285.61 0.373424L1290.65 6.25278ZM1310 27.5358L1304.97 21.6573L1297.88 24.7707L1302.92 30.647L1310 27.5358ZM1334.63 16.1824L1331.28 12.2641L1326.55 14.339L1329.91 18.2561L1334.63 16.1824ZM1398.96 43.1095L1402.32 47.0266L1407.05 44.9547L1403.69 41.0376L1398.96 43.1095ZM1430.89 53.547L1427.54 49.6308L1422.81 51.7027L1426.17 55.6228L1430.89 53.547ZM1389.25 20.8733L1385.9 16.9549L1381.18 19.0299L1384.54 22.95L1389.25 20.8733ZM1267.92 -10.7573L1264.57 -14.6756L1259.84 -12.6007L1263.2 -8.68049L1267.92 -10.7573ZM1243.15 -1.54538L1239.79 -5.46155L1235.07 -3.38878L1238.42 0.530494L1243.15 -1.54538ZM1255.6 22.1145L1258.96 26.0347L1263.67 23.9579L1260.32 20.0396L1255.6 22.1145ZM1320.98 -11.2602L1317.63 -15.1786L1312.9 -13.1027L1316.26 -9.18342L1320.98 -11.2602ZM1359.79 -5.55597L1356.44 -9.47432L1351.71 -7.39937L1355.07 -3.47919L1359.79 -5.55597ZM1295.26 -13.9755L1291.91 -17.8939L1287.19 -15.818L1290.54 -11.9018L1295.26 -13.9755ZM1408.37 19.3224L1405.02 15.4071L1400.29 17.479L1403.65 21.3992L1408.37 19.3224ZM1349.2 50.1662L1356.28 47.0519L1351.25 41.1735L1344.16 44.2859L1349.2 50.1662ZM1352.05 21.8407L1347.02 15.9654L1339.94 19.0756L1344.97 24.955L1352.05 21.8407ZM1378.31 9.70535L1373.28 3.83L1366.19 6.93934L1371.22 12.8196L1378.31 9.70535ZM1379.26 30.1591L1384.29 36.0376L1391.38 32.9242L1386.35 27.0449L1379.26 30.1591ZM1418.44 32.2655L1413.41 26.3861L1406.32 29.4995L1411.36 35.3757L1418.44 32.2655ZM1385.83 57.2454L1392.91 54.1352L1387.88 48.2558L1380.79 51.3691L1385.83 57.2454ZM1236.22 10.1881L1241.25 16.0683L1248.34 12.9541L1243.3 7.07873L1236.22 10.1881Z" fill="#0D0D0D"/>
</g>
<g clip-path="url(#clip10_1_2)">
<path d="M269.434 366.613C269.94 367.355 272.897 368.53 276.776 369.97L358.865 272.528C356.276 271.957 353.79 271.13 351.49 269.605C348.856 267.857 346.777 265.095 345.454 261.368C343.42 263.24 341.259 265.407 339.027 267.842C332.261 275.222 324.711 284.853 316.989 295.22C301.735 315.698 285.88 338.92 272.91 354.245C270.948 356.96 267.367 363.552 269.434 366.613ZM279.912 379.135L287.593 390.994C288.706 389.905 289.901 388.923 291.16 388.06C295.849 384.865 301.459 383.577 306.416 385.572C311.373 387.566 314.528 392.38 315.699 397.933C316.868 403.487 316.218 409.924 313.692 416.202C312.488 419.195 310.948 421.914 309.162 424.29L339.218 470.689C340.852 468.825 342.837 467.116 345.204 465.672C349.888 462.272 354.455 460.448 358.365 460.408C362.275 460.369 365.86 462.316 366.914 467.226C367.967 472.135 366.073 478.062 363.204 482.942C360.853 486.94 357.737 490.616 354.113 493.683L379.54 532.936L373.391 394.185C372.292 395.883 371.079 397.494 369.763 399.002C365.071 404.392 359.477 408.205 353.799 410.022C348.122 411.839 341.872 411.632 337.353 407.807C332.833 403.981 331.681 397.92 332.643 392.111C333.606 386.302 336.583 380.272 341.275 374.883C345.969 369.494 351.563 365.68 357.24 363.863C362.279 362.25 367.765 362.237 372.095 364.928L368.085 274.471L280.661 378.247L279.912 379.135ZM290.416 400.49C293.678 411.84 301.787 425.142 306.096 413.146C307.907 408.645 308.26 404.143 307.541 400.728C306.822 397.314 305.324 395.17 302.941 394.211C300.558 393.253 297.53 394.395 295.109 395.728C293.222 396.766 292.413 396.885 290.417 400.49L290.416 400.49ZM352.697 255.631C353.358 259.074 354.557 260.516 356.264 261.648C360.025 263.531 365.458 264.321 367.929 264.651C368.907 264.782 374.114 264.735 374.17 265.871C378.594 356.128 383.018 446.385 387.444 536.644L395.335 539.654C390.911 449.396 386.936 354.826 382.512 264.568L382.289 260.035C379.201 258.956 378.252 258.735 376.193 258.217C374.148 257.334 371.392 256.421 368.547 255.684C365.701 254.946 362.745 254.376 360.292 254.108C357.886 253.845 355.811 254.061 355.635 254.1C354.772 254.429 353.782 254.948 352.697 255.631ZM342.731 388.934C342.042 390.583 341.575 392.174 341.333 393.635C340.688 397.531 341.545 400.018 343.035 401.28C344.525 402.542 347.147 403 350.955 401.781C354.763 400.563 359.266 397.641 363.038 393.309C366.809 388.978 369.059 384.144 369.704 380.249C370.35 376.354 369.493 373.868 368.002 372.607C366.512 371.345 363.889 370.884 360.082 372.104C356.275 373.322 351.771 376.246 347.999 380.577C345.642 383.284 343.879 386.187 342.731 388.935L342.731 388.934ZM344.979 477.071C343.661 480.22 346.361 483.707 349.737 486.777C353.213 484.255 356.082 480.945 357.74 478.126C359.397 475.307 359.677 473.541 359.48 472.622C359.283 471.703 358.422 470.765 356.164 470.788C353.906 470.811 350.582 471.997 347.105 474.521C346.033 475.333 345.348 476.189 344.979 477.071Z" fill="#0D0D0D"/>
</g>
<path d="M1156.25 719.917C1155.64 719.835 1153.68 720.787 1151.15 722.081L1161.68 807.088C1163.17 806.049 1164.74 805.176 1166.57 804.711C1168.67 804.179 1171.02 804.382 1173.5 805.398C1173.51 803.537 1173.43 801.478 1173.25 799.263C1172.71 792.55 1171.41 784.43 1169.82 775.893C1166.67 759.029 1162.44 740.628 1160.81 727.229C1160.37 725.023 1158.74 720.26 1156.25 719.917ZM1145.11 719.524L1135.61 718.029C1135.64 719.077 1135.57 720.117 1135.42 721.136C1134.84 724.924 1132.87 728.314 1129.57 729.898C1126.26 731.483 1122.39 730.894 1119.07 728.979C1115.75 727.063 1112.83 723.838 1110.87 719.744C1109.94 717.793 1109.29 715.798 1108.93 713.833L1071.76 707.985C1071.93 709.643 1071.86 711.407 1071.48 713.243C1071 717.121 1069.79 720.23 1067.99 722.206C1066.19 724.182 1063.55 725.1 1060.61 723.416C1057.66 721.732 1055.58 718.115 1054.48 714.479C1053.57 711.501 1053.18 708.284 1053.34 705.088L1021.89 700.141L1094.11 759.562C1093.77 758.247 1093.53 756.914 1093.39 755.575C1092.88 750.797 1093.57 746.278 1095.3 742.616C1097.04 738.954 1100.05 735.917 1104.06 735.377C1108.08 734.837 1111.64 736.99 1114.1 740.088C1116.55 743.187 1118.18 747.394 1118.7 752.172C1119.21 756.95 1118.51 761.47 1116.78 765.132C1115.24 768.382 1112.69 771.135 1109.34 772.092L1156.42 810.831L1145.21 720.299L1145.11 719.524ZM1129.55 715.165C1122.36 711.686 1111.94 709.755 1115.93 717.317C1117.34 720.252 1119.43 722.456 1121.47 723.635C1123.51 724.812 1125.28 725.027 1126.86 724.266C1128.45 723.504 1129.29 721.473 1129.75 719.66C1130.11 718.248 1130.43 717.789 1129.55 715.165L1129.55 715.165ZM1173 811.61C1170.97 810.39 1169.69 810.342 1168.33 810.686C1165.64 811.722 1162.72 814.087 1161.4 815.176C1160.88 815.607 1158.48 818.236 1157.89 817.752C1110.71 779.311 1063.54 740.87 1016.36 702.43L1011.18 705.025C1058.36 743.467 1107.48 784.075 1154.66 822.517L1157.03 824.448C1159 823.386 1159.56 823.011 1160.77 822.213C1162.17 821.587 1163.9 820.618 1165.6 819.525C1167.29 818.431 1168.95 817.208 1170.22 816.1C1171.47 815.014 1172.33 813.877 1172.39 813.771C1172.63 813.191 1172.83 812.461 1173 811.61ZM1110.99 746.572C1110.49 745.484 1109.91 744.533 1109.29 743.754C1107.65 741.676 1106.01 740.985 1104.68 741.163C1103.36 741.341 1101.91 742.447 1100.75 744.904C1099.58 747.359 1098.95 750.931 1099.36 754.772C1099.77 758.611 1101.14 761.916 1102.79 763.993C1104.44 766.071 1106.08 766.762 1107.4 766.583C1108.73 766.405 1110.18 765.299 1111.34 762.843C1112.5 760.387 1113.13 756.815 1112.72 752.975C1112.46 750.575 1111.83 748.384 1110.99 746.572L1110.99 746.572ZM1065.89 707.996C1064.93 705.917 1061.93 705.699 1058.82 706.006C1058.47 708.884 1058.79 711.812 1059.43 713.912C1060.07 716.012 1060.82 716.947 1061.37 717.263C1061.92 717.578 1062.79 717.569 1063.83 716.428C1064.87 715.287 1065.82 713.088 1066.18 710.209C1066.27 709.306 1066.16 708.578 1065.89 707.996Z" fill="#0D0D0D"/>
<path d="M645.657 636.159C645.051 636.078 643.088 637.029 640.565 638.324L651.09 723.331C652.58 722.291 654.149 721.419 655.982 720.954C658.081 720.421 660.429 720.625 662.907 721.641C662.918 719.779 662.84 717.721 662.66 715.506C662.119 708.793 660.816 700.673 659.226 692.136C656.085 675.271 651.851 656.87 650.223 643.471C649.779 641.265 648.149 636.503 645.657 636.159ZM634.524 635.766L625.023 634.271C625.05 635.319 624.985 636.36 624.83 637.379C624.246 641.167 622.28 644.557 618.978 646.141C615.675 647.725 611.801 647.137 608.481 645.222C605.161 643.306 602.245 640.08 600.282 635.987C599.346 634.036 598.703 632.04 598.345 630.075L561.17 624.228C561.342 625.886 561.273 627.65 560.894 629.486C560.415 633.363 559.203 636.472 557.404 638.448C555.605 640.424 552.963 641.343 550.019 639.659C547.075 637.975 544.993 634.357 543.888 630.721C542.983 627.743 542.595 624.526 542.748 621.33L511.298 616.383L583.518 675.805C583.181 674.49 582.94 673.156 582.798 671.818C582.286 667.04 582.982 662.521 584.715 658.859C586.447 655.196 589.458 652.159 593.472 651.619C597.487 651.079 601.053 653.232 603.509 656.331C605.965 659.429 607.595 663.637 608.106 668.415C608.617 673.193 607.921 677.713 606.189 681.375C604.651 684.625 602.106 687.378 598.746 688.335L645.83 727.073L634.619 636.541L634.524 635.766ZM618.963 631.408C611.772 627.928 601.35 625.998 605.343 633.56C606.75 636.494 608.836 638.699 610.878 639.877C612.919 641.054 614.688 641.27 616.275 640.508C617.863 639.747 618.701 637.716 619.16 635.903C619.519 634.49 619.836 634.031 618.962 631.407L618.963 631.408ZM662.406 727.853C660.377 726.633 659.099 726.584 657.739 726.929C655.048 727.964 652.126 730.33 650.812 731.419C650.291 731.849 647.892 734.479 647.299 733.995C600.122 695.553 552.946 657.113 505.768 618.672L500.593 621.268C547.77 659.709 596.893 700.318 644.07 738.759L646.44 740.69C648.415 739.629 648.967 739.254 650.184 738.455C651.577 737.829 653.314 736.86 655.007 735.767C656.699 734.674 658.359 733.451 659.634 732.343C660.885 731.256 661.742 730.12 661.804 730.014C662.042 729.434 662.242 728.704 662.406 727.853ZM600.405 662.814C599.901 661.726 599.323 660.776 598.705 659.996C597.058 657.918 595.416 657.227 594.092 657.405C592.768 657.583 591.319 658.69 590.157 661.146C588.995 663.602 588.361 667.174 588.772 671.014C589.183 674.854 590.553 678.158 592.2 680.236C593.846 682.314 595.487 683.004 596.812 682.826C598.136 682.648 599.586 681.542 600.747 679.086C601.909 676.63 602.543 673.057 602.132 669.217C601.875 666.817 601.244 664.627 600.404 662.814L600.405 662.814ZM555.301 624.238C554.339 622.16 551.341 621.942 548.236 622.249C547.879 625.126 548.199 628.054 548.837 630.154C549.476 632.254 550.228 633.19 550.779 633.506C551.33 633.82 552.199 633.812 553.239 632.671C554.278 631.529 555.231 629.331 555.586 626.452C555.679 625.549 555.57 624.82 555.301 624.238Z" fill="#0D0D0D"/>
<path d="M835.056 152.375C822.05 152.375 814.362 156.762 808.728 163.987C803.578 163.368 798.65 162.881 794.574 162.881C781.41 162.881 770.184 168.435 762.317 175.59C754.713 182.497 749.785 190.925 745.541 199.362C745.499 199.388 745.246 199.326 745.214 199.362C734.262 216.634 722.625 239.327 683.006 254.901C653.519 266.583 639.196 283.643 635.616 300.508C627.264 304.894 622.125 311.386 622.125 323.174C622.125 341.552 637.922 352.182 657.668 356.887C668.863 366.969 683.828 373.469 702.426 373.469C734.757 373.469 772.732 355.604 818.27 315.984H818.596C868.914 273.702 885.406 238.637 885.406 213.724C885.406 197.522 880.056 185.99 869.936 180.295C872.874 160.14 850.758 152.375 835.056 152.375ZM794.574 180.569C795.933 180.569 797.734 180.737 799.513 180.834C790.994 200.98 782.347 228.997 749.816 256.289C718.675 283.024 685.312 287.897 660.301 293.044C665.114 285.35 674.371 277.877 691.895 270.934C737.432 253.008 753.313 224.16 763.644 207.923C763.886 207.648 764.086 207.374 764.297 207.091C768.088 199.397 772.648 192.145 777.787 187.476C782.937 182.806 787.95 180.56 794.574 180.56V180.569ZM842.955 196.594C848.263 196.39 854.265 197.177 861.384 199.362C862.859 202.369 864.344 206.888 864.344 213.724C864.344 232.031 851.706 263.302 803.789 303.55L803.463 303.824C772.28 330.975 745.751 345.629 724.805 351.917C700.246 350.599 673.012 334.707 768.246 276.188C806.79 252.522 805.685 198.15 842.955 196.594Z" fill="#0D0D0D"/>
<path d="M1241.06 833.375C1228.05 833.375 1220.36 837.762 1214.73 844.987C1209.58 844.368 1204.65 843.881 1200.57 843.881C1187.41 843.881 1176.18 849.435 1168.32 856.59C1160.71 863.497 1155.78 871.925 1151.54 880.362C1151.5 880.388 1151.25 880.326 1151.21 880.362C1140.26 897.634 1128.62 920.327 1089.01 935.901C1059.52 947.583 1045.2 964.643 1041.62 981.508C1033.26 985.894 1028.12 992.386 1028.12 1004.17C1028.12 1022.55 1043.92 1033.18 1063.67 1037.89C1074.86 1047.97 1089.83 1054.47 1108.43 1054.47C1140.76 1054.47 1178.73 1036.6 1224.27 996.984H1224.6C1274.91 954.702 1291.41 919.637 1291.41 894.724C1291.41 878.522 1286.06 866.99 1275.94 861.295C1278.87 841.14 1256.76 833.375 1241.06 833.375ZM1200.57 861.569C1201.93 861.569 1203.73 861.737 1205.51 861.834C1196.99 881.98 1188.35 909.997 1155.82 937.289C1124.68 964.024 1091.31 968.897 1066.3 974.044C1071.11 966.35 1080.37 958.877 1097.89 951.934C1143.43 934.008 1159.31 905.16 1169.64 888.923C1169.89 888.648 1170.09 888.374 1170.3 888.091C1174.09 880.397 1178.65 873.145 1183.79 868.476C1188.94 863.806 1193.95 861.56 1200.57 861.56V861.569ZM1248.95 877.594C1254.26 877.39 1260.27 878.177 1267.38 880.362C1268.86 883.369 1270.34 887.888 1270.34 894.724C1270.34 913.031 1257.71 944.302 1209.79 984.55L1209.46 984.824C1178.28 1011.97 1151.75 1026.63 1130.8 1032.92C1106.25 1031.6 1079.01 1015.71 1174.25 957.188C1212.79 933.522 1211.68 879.15 1248.95 877.594Z" fill="#0D0D0D"/>
<path d="M175.056 10.375C162.05 10.375 154.362 14.7615 148.728 21.9868C143.578 21.3678 138.65 20.8814 134.574 20.8814C121.41 20.8814 110.184 26.4352 102.317 33.5898C94.7134 40.4968 89.7848 48.9249 85.5407 57.3618C85.4986 57.3884 85.2458 57.3265 85.2142 57.3618C74.2617 74.6337 62.6247 97.3268 23.0062 112.901C-6.48134 124.583 -20.8038 141.643 -24.3845 158.508C-32.7357 162.894 -37.875 169.386 -37.875 181.174C-37.875 199.552 -22.0781 210.182 -2.33203 214.887C8.86269 224.969 23.8276 231.469 42.4258 231.469C74.7567 231.469 112.732 213.604 158.27 173.984H158.596C208.914 131.702 225.406 96.6369 225.406 71.7241C225.406 55.5223 220.056 43.9901 209.936 38.2947C212.874 18.1398 190.758 10.375 175.056 10.375ZM134.574 38.5689C135.933 38.5689 137.734 38.7369 139.513 38.8342C130.994 58.9803 122.347 86.9973 89.8164 114.289C58.6755 141.024 25.3125 145.897 0.300781 151.044C5.11356 143.35 14.3705 135.877 31.8945 128.934C77.4317 111.008 93.3128 82.1597 103.644 65.9226C103.886 65.6484 104.086 65.3743 104.297 65.0913C108.088 57.3972 112.648 50.1453 117.787 45.4758C122.937 40.8063 127.95 38.56 134.574 38.56V38.5689ZM182.955 54.5938C188.263 54.3903 194.265 55.1774 201.384 57.3618C202.859 60.3687 204.344 64.8879 204.344 71.7241C204.344 90.0307 191.706 121.302 143.789 161.55L143.463 161.824C112.28 188.975 85.7513 203.629 64.8047 209.917C40.2458 208.599 13.012 192.707 108.246 134.188C146.79 110.522 145.685 56.1502 182.955 54.5938Z" fill="#0D0D0D"/>
<path d="M1472.06 346.375C1459.05 346.375 1451.36 350.762 1445.73 357.987C1440.58 357.368 1435.65 356.881 1431.57 356.881C1418.41 356.881 1407.18 362.435 1399.32 369.59C1391.71 376.497 1386.78 384.925 1382.54 393.362C1382.5 393.388 1382.25 393.326 1382.21 393.362C1371.26 410.634 1359.62 433.327 1320.01 448.901C1290.52 460.583 1276.2 477.643 1272.62 494.508C1264.26 498.894 1259.12 505.386 1259.12 517.174C1259.12 535.552 1274.92 546.182 1294.67 550.887C1305.86 560.969 1320.83 567.469 1339.43 567.469C1371.76 567.469 1409.73 549.604 1455.27 509.984H1455.6C1505.91 467.702 1522.41 432.637 1522.41 407.724C1522.41 391.522 1517.06 379.99 1506.94 374.295C1509.87 354.14 1487.76 346.375 1472.06 346.375ZM1431.57 374.569C1432.93 374.569 1434.73 374.737 1436.51 374.834C1427.99 394.98 1419.35 422.997 1386.82 450.289C1355.68 477.024 1322.31 481.897 1297.3 487.044C1302.11 479.35 1311.37 471.877 1328.89 464.934C1374.43 447.008 1390.31 418.16 1400.64 401.923C1400.89 401.648 1401.09 401.374 1401.3 401.091C1405.09 393.397 1409.65 386.145 1414.79 381.476C1419.94 376.806 1424.95 374.56 1431.57 374.56V374.569ZM1479.95 390.594C1485.26 390.39 1491.27 391.177 1498.38 393.362C1499.86 396.369 1501.34 400.888 1501.34 407.724C1501.34 426.031 1488.71 457.302 1440.79 497.55L1440.46 497.824C1409.28 524.975 1382.75 539.629 1361.8 545.917C1337.25 544.599 1310.01 528.707 1405.25 470.188C1443.79 446.522 1442.68 392.15 1479.95 390.594Z" fill="#0D0D0D"/>
</g>
<defs>
<clipPath id="clip0_1_2">
<rect width="1440" height="1024" fill="white"/>
</clipPath>
<clipPath id="clip1_1_2">
<rect width="329.561" height="315.964" fill="white" transform="translate(187.839 578) rotate(14.8239)"/>
</clipPath>
<clipPath id="clip2_1_2">
<rect width="64.492" height="83.5949" fill="white" transform="translate(59.4023 442.178) rotate(25.7453)"/>
</clipPath>
<clipPath id="clip3_1_2">
<rect width="144.803" height="138.125" fill="white" transform="translate(1004.75 217.79) rotate(-13.5251)"/>
</clipPath>
<clipPath id="clip4_1_2">
<rect width="64.492" height="83.5949" fill="white" transform="translate(758.897 603.496) rotate(-61.1661)"/>
</clipPath>
<clipPath id="clip5_1_2">
<rect width="64.492" height="83.5949" fill="white" transform="translate(457.875 199.069) rotate(-5.78047)"/>
</clipPath>
<clipPath id="clip6_1_2">
<rect width="190" height="149" fill="white" transform="translate(597.154 731) rotate(12.8563)"/>
</clipPath>
<clipPath id="clip7_1_2">
<rect width="190" height="149" fill="white" transform="translate(970.154 428) rotate(12.8563)"/>
</clipPath>
<clipPath id="clip8_1_2">
<rect width="96.8633" height="65.4584" fill="white" transform="translate(481.565 460.447) rotate(12.8563)"/>
</clipPath>
<clipPath id="clip9_1_2">
<rect width="262.746" height="203.282" fill="white" transform="translate(1217.23 -58.1863) rotate(12.8563)"/>
</clipPath>
<clipPath id="clip10_1_2">
<rect width="298" height="262" fill="white" transform="translate(217 535.464) rotate(-68.0838)"/>
</clipPath>
</defs>
</svg>
