<svg width="460" height="150" viewBox="0 0 460 150" fill="none" xmlns="http://www.w3.org/2000/svg">
<g clip-path="url(#clip0_4_96)">
<path d="M67.056 120C66.2027 120 65.4773 119.701 64.88 119.104C64.2827 118.507 63.984 117.781 63.984 116.928V33.6C63.984 32.6613 64.2827 31.8933 64.88 31.296C65.4773 30.6987 66.2027 30.4 67.056 30.4H122.608C123.547 30.4 124.315 30.6987 124.912 31.296C125.509 31.8933 125.808 32.6613 125.808 33.6V42.56C125.808 43.4987 125.509 44.2667 124.912 44.864C124.315 45.376 123.547 45.632 122.608 45.632H81.52V69.952H120.048C120.987 69.952 121.755 70.2507 122.352 70.848C122.949 71.4453 123.248 72.2133 123.248 73.152V82.112C123.248 82.9653 122.949 83.6907 122.352 84.288C121.755 84.8853 120.987 85.184 120.048 85.184H81.52V116.928C81.52 117.781 81.2213 118.507 80.624 119.104C80.0267 119.701 79.2587 120 78.32 120H67.056ZM167.513 121.28C160.686 121.28 154.926 120.085 150.233 117.696C145.625 115.307 142.084 111.936 139.609 107.584C137.22 103.232 135.854 98.1547 135.513 92.352C135.428 90.816 135.385 88.9387 135.385 86.72C135.385 84.5013 135.428 82.624 135.513 81.088C135.854 75.2 137.262 70.1227 139.737 65.856C142.297 61.504 145.881 58.1333 150.489 55.744C155.182 53.3547 160.857 52.16 167.513 52.16C174.169 52.16 179.801 53.3547 184.409 55.744C189.102 58.1333 192.686 61.504 195.161 65.856C197.721 70.1227 199.172 75.2 199.513 81.088C199.598 82.624 199.641 84.5013 199.641 86.72C199.641 88.9387 199.598 90.816 199.513 92.352C199.172 98.1547 197.764 103.232 195.289 107.584C192.9 111.936 189.358 115.307 184.665 117.696C180.057 120.085 174.34 121.28 167.513 121.28ZM167.513 108.608C172.036 108.608 175.534 107.2 178.009 104.384C180.484 101.483 181.849 97.2587 182.105 91.712C182.19 90.432 182.233 88.768 182.233 86.72C182.233 84.672 182.19 83.008 182.105 81.728C181.849 76.2667 180.484 72.0853 178.009 69.184C175.534 66.2827 172.036 64.832 167.513 64.832C162.99 64.832 159.492 66.2827 157.017 69.184C154.542 72.0853 153.177 76.2667 152.921 81.728C152.836 83.008 152.793 84.672 152.793 86.72C152.793 88.768 152.836 90.432 152.921 91.712C153.177 97.2587 154.542 101.483 157.017 104.384C159.492 107.2 162.99 108.608 167.513 108.608ZM238.527 121.28C234.09 121.28 230.164 120.555 226.751 119.104C223.423 117.568 220.65 115.435 218.431 112.704C216.212 109.973 214.506 106.773 213.311 103.104C212.116 99.3493 211.434 95.2533 211.263 90.816C211.178 89.28 211.135 87.9147 211.135 86.72C211.135 85.44 211.178 84.032 211.263 82.496C211.434 78.2293 212.074 74.2613 213.183 70.592C214.378 66.9227 216.084 63.7227 218.303 60.992C220.607 58.176 223.423 56 226.751 54.464C230.164 52.928 234.09 52.16 238.527 52.16C243.135 52.16 247.018 52.9707 250.175 54.592C253.418 56.128 256.106 58.1333 258.239 60.608V32.192C258.239 31.3387 258.495 30.6133 259.007 30.016C259.604 29.4187 260.372 29.12 261.311 29.12H272.191C273.044 29.12 273.77 29.4187 274.367 30.016C274.964 30.6133 275.263 31.3387 275.263 32.192V116.928C275.263 117.781 274.964 118.507 274.367 119.104C273.77 119.701 273.044 120 272.191 120H262.079C261.14 120 260.372 119.701 259.775 119.104C259.263 118.507 259.007 117.781 259.007 116.928V112.192C256.874 114.837 254.143 117.013 250.815 118.72C247.572 120.427 243.476 121.28 238.527 121.28ZM243.263 107.584C246.847 107.584 249.706 106.773 251.839 105.152C253.972 103.531 255.551 101.483 256.575 99.008C257.599 96.448 258.154 93.8453 258.239 91.2C258.324 89.664 258.367 88.0427 258.367 86.336C258.367 84.544 258.324 82.88 258.239 81.344C258.154 78.784 257.556 76.352 256.447 74.048C255.338 71.6587 253.716 69.696 251.583 68.16C249.45 66.624 246.676 65.856 243.263 65.856C239.679 65.856 236.82 66.6667 234.687 68.288C232.639 69.824 231.146 71.872 230.207 74.432C229.268 76.992 228.714 79.808 228.543 82.88C228.458 85.44 228.458 88 228.543 90.56C228.714 93.632 229.268 96.448 230.207 99.008C231.146 101.568 232.639 103.659 234.687 105.28C236.82 106.816 239.679 107.584 243.263 107.584ZM320.995 121.28C311.523 121.28 304.014 118.549 298.467 113.088C292.92 107.627 289.934 99.8613 289.507 89.792C289.422 88.9387 289.379 87.872 289.379 86.592C289.379 85.2267 289.422 84.16 289.507 83.392C289.848 76.992 291.299 71.4453 293.859 66.752C296.504 62.0587 300.131 58.4747 304.739 56C309.347 53.44 314.766 52.16 320.995 52.16C327.907 52.16 333.71 53.6107 338.403 56.512C343.096 59.328 346.638 63.296 349.027 68.416C351.416 73.4507 352.611 79.296 352.611 85.952V88.64C352.611 89.4933 352.312 90.2187 351.715 90.816C351.118 91.4133 350.35 91.712 349.411 91.712H306.915C306.915 91.712 306.915 91.84 306.915 92.096C306.915 92.352 306.915 92.5653 306.915 92.736C307 95.7227 307.555 98.496 308.579 101.056C309.688 103.531 311.267 105.536 313.315 107.072C315.448 108.608 317.966 109.376 320.867 109.376C323.256 109.376 325.262 109.035 326.883 108.352C328.504 107.584 329.827 106.731 330.851 105.792C331.875 104.853 332.6 104.085 333.027 103.488C333.795 102.464 334.392 101.867 334.819 101.696C335.331 101.44 336.056 101.312 336.995 101.312H348.003C348.856 101.312 349.539 101.568 350.051 102.08C350.648 102.592 350.904 103.232 350.819 104C350.734 105.365 350.008 107.029 348.643 108.992C347.363 110.955 345.486 112.875 343.011 114.752C340.536 116.629 337.422 118.208 333.667 119.488C329.998 120.683 325.774 121.28 320.995 121.28ZM306.915 80.96H335.203V80.576C335.203 77.248 334.648 74.3467 333.539 71.872C332.43 69.3973 330.808 67.4347 328.675 65.984C326.542 64.5333 323.982 63.808 320.995 63.808C318.008 63.808 315.448 64.5333 313.315 65.984C311.182 67.4347 309.56 69.3973 308.451 71.872C307.427 74.3467 306.915 77.248 306.915 80.576V80.96Z" fill="#1E1E1E"/>
<path d="M391.521 110.552C391.521 107.622 392.522 105.156 394.524 103.154C396.526 101.152 399.236 100.151 402.654 100.151C406.072 100.151 408.782 101.152 410.784 103.154C412.786 105.156 413.787 107.622 413.787 110.552C413.787 113.433 412.786 115.874 410.784 117.876C408.782 119.829 406.072 120.806 402.654 120.806C399.236 120.806 396.526 119.829 394.524 117.876C392.522 115.874 391.521 113.433 391.521 110.552Z" fill="#FDDC7D"/>
</g>
<defs>
<clipPath id="clip0_4_96">
<rect width="460" height="150" fill="white"/>
</clipPath>
</defs>
</svg>
