<svg width="200" height="200" viewBox="0 0 200 200" fill="none" xmlns="http://www.w3.org/2000/svg">
<circle cx="17" cy="11" r="5" fill="#CCCCCC" fill-opacity="0.73"/>
<circle cx="43" cy="11" r="5" fill="#CCCCCC" fill-opacity="0.73"/>
<circle cx="68" cy="11" r="5" fill="#CCCCCC" fill-opacity="0.73"/>
<circle cx="95" cy="11" r="5" fill="#CCCCCC" fill-opacity="0.73"/>
<circle cx="125" cy="11" r="5" fill="#CCCCCC" fill-opacity="0.73"/>
<circle cx="155" cy="11" r="5" fill="#CCCCCC" fill-opacity="0.73"/>
<circle cx="182" cy="11" r="5" fill="#CCCCCC" fill-opacity="0.73"/>
<circle cx="17" cy="29" r="5" fill="#CCCCCC" fill-opacity="0.73"/>
<circle cx="43" cy="29" r="5" fill="#CCCCCC" fill-opacity="0.73"/>
<circle cx="68" cy="29" r="5" fill="#CCCCCC" fill-opacity="0.73"/>
<circle cx="95" cy="29" r="5" fill="#CCCCCC" fill-opacity="0.73"/>
<circle cx="125" cy="29" r="5" fill="#CCCCCC" fill-opacity="0.73"/>
<circle cx="155" cy="29" r="5" fill="#CCCCCC" fill-opacity="0.73"/>
<circle cx="182" cy="29" r="5" fill="#CCCCCC" fill-opacity="0.73"/>
<circle cx="17" cy="48" r="5" fill="#CCCCCC" fill-opacity="0.73"/>
<circle cx="43" cy="48" r="5" fill="#CCCCCC" fill-opacity="0.73"/>
<circle cx="68" cy="48" r="5" fill="#CCCCCC" fill-opacity="0.73"/>
<circle cx="95" cy="48" r="5" fill="#CCCCCC" fill-opacity="0.73"/>
<circle cx="125" cy="48" r="5" fill="#CCCCCC" fill-opacity="0.73"/>
<circle cx="155" cy="48" r="5" fill="#CCCCCC" fill-opacity="0.73"/>
<circle cx="182" cy="48" r="5" fill="#CCCCCC" fill-opacity="0.73"/>
<circle cx="17" cy="68" r="5" fill="#CCCCCC" fill-opacity="0.73"/>
<circle cx="43" cy="68" r="5" fill="#CCCCCC" fill-opacity="0.73"/>
<circle cx="68" cy="68" r="5" fill="#CCCCCC" fill-opacity="0.73"/>
<circle cx="95" cy="68" r="5" fill="#CCCCCC" fill-opacity="0.73"/>
<circle cx="125" cy="68" r="5" fill="#CCCCCC" fill-opacity="0.73"/>
<circle cx="155" cy="68" r="5" fill="#CCCCCC" fill-opacity="0.73"/>
<circle cx="182" cy="68" r="5" fill="#CCCCCC" fill-opacity="0.73"/>
<circle cx="17" cy="87" r="5" fill="#CCCCCC" fill-opacity="0.73"/>
<circle cx="43" cy="87" r="5" fill="#CCCCCC" fill-opacity="0.73"/>
<circle cx="68" cy="87" r="5" fill="#CCCCCC" fill-opacity="0.73"/>
<circle cx="95" cy="87" r="5" fill="#CCCCCC" fill-opacity="0.73"/>
<circle cx="125" cy="87" r="5" fill="#CCCCCC" fill-opacity="0.73"/>
<circle cx="155" cy="87" r="5" fill="#CCCCCC" fill-opacity="0.73"/>
<circle cx="182" cy="87" r="5" fill="#CCCCCC" fill-opacity="0.73"/>
<circle cx="17" cy="108" r="5" fill="#CCCCCC" fill-opacity="0.73"/>
<circle cx="43" cy="108" r="5" fill="#CCCCCC" fill-opacity="0.73"/>
<circle cx="68" cy="108" r="5" fill="#CCCCCC" fill-opacity="0.73"/>
<circle cx="95" cy="108" r="5" fill="#CCCCCC" fill-opacity="0.73"/>
<circle cx="125" cy="108" r="5" fill="#CCCCCC" fill-opacity="0.73"/>
<circle cx="155" cy="108" r="5" fill="#CCCCCC" fill-opacity="0.73"/>
<circle cx="182" cy="108" r="5" fill="#CCCCCC" fill-opacity="0.73"/>
<circle cx="17" cy="132" r="5" fill="#CCCCCC" fill-opacity="0.73"/>
<circle cx="43" cy="132" r="5" fill="#CCCCCC" fill-opacity="0.73"/>
<circle cx="68" cy="132" r="5" fill="#CCCCCC" fill-opacity="0.73"/>
<circle cx="95" cy="132" r="5" fill="#CCCCCC" fill-opacity="0.73"/>
<circle cx="125" cy="132" r="5" fill="#CCCCCC" fill-opacity="0.73"/>
<circle cx="155" cy="132" r="5" fill="#CCCCCC" fill-opacity="0.73"/>
<circle cx="182" cy="132" r="5" fill="#CCCCCC" fill-opacity="0.73"/>
<circle cx="17" cy="153" r="5" fill="#CCCCCC" fill-opacity="0.73"/>
<circle cx="43" cy="153" r="5" fill="#CCCCCC" fill-opacity="0.73"/>
<circle cx="68" cy="153" r="5" fill="#CCCCCC" fill-opacity="0.73"/>
<circle cx="95" cy="153" r="5" fill="#CCCCCC" fill-opacity="0.73"/>
<circle cx="125" cy="153" r="5" fill="#CCCCCC" fill-opacity="0.73"/>
<circle cx="155" cy="153" r="5" fill="#CCCCCC" fill-opacity="0.73"/>
<circle cx="182" cy="153" r="5" fill="#CCCCCC" fill-opacity="0.73"/>
<circle cx="17" cy="173" r="5" fill="#CCCCCC" fill-opacity="0.73"/>
<circle cx="43" cy="173" r="5" fill="#CCCCCC" fill-opacity="0.73"/>
<circle cx="68" cy="173" r="5" fill="#CCCCCC" fill-opacity="0.73"/>
<circle cx="95" cy="173" r="5" fill="#CCCCCC" fill-opacity="0.73"/>
<circle cx="125" cy="173" r="5" fill="#CCCCCC" fill-opacity="0.73"/>
<circle cx="155" cy="173" r="5" fill="#CCCCCC" fill-opacity="0.73"/>
<circle cx="182" cy="173" r="5" fill="#CCCCCC" fill-opacity="0.73"/>
<circle cx="17" cy="191" r="5" fill="#CCCCCC" fill-opacity="0.73"/>
<circle cx="43" cy="191" r="5" fill="#CCCCCC" fill-opacity="0.73"/>
<circle cx="68" cy="191" r="5" fill="#CCCCCC" fill-opacity="0.73"/>
<circle cx="95" cy="191" r="5" fill="#CCCCCC" fill-opacity="0.73"/>
<circle cx="125" cy="191" r="5" fill="#CCCCCC" fill-opacity="0.73"/>
<circle cx="155" cy="191" r="5" fill="#CCCCCC" fill-opacity="0.73"/>
<circle cx="182" cy="191" r="5" fill="#CCCCCC" fill-opacity="0.73"/>
</svg>
