<svg width="1000" height="800" viewBox="0 0 1000 800" fill="none" xmlns="http://www.w3.org/2000/svg">
<g clip-path="url(#clip0_6_2)">
<path d="M-14 194.827C-14 194.827 74.2564 110.553 146 101.827C265.349 87.3112 280.91 268.547 401 274.327C490.964 278.658 528.203 183.067 617.5 194.827C669.648 201.695 693.003 273.888 756.951 289.327C840.387 309.471 970.5 237.327 970.5 237.327" stroke="black"/>
<path d="M493.941 853.454C493.941 853.454 375.157 825.497 328.689 770.144C251.387 678.06 394.757 566.106 334.058 462.325C288.586 384.578 188.163 405.546 149.281 324.303C126.575 276.858 174.32 217.887 152.355 155.877C123.697 74.9694 -7.76763 5.31859 -7.76763 5.31859" stroke="black"/>
<path d="M293.924 901.545C293.924 901.545 258.01 784.92 282.286 716.846C322.671 603.603 491.736 670.727 550.606 565.896C594.708 487.364 525.857 411.312 576.307 336.698C605.769 293.126 680.786 304.517 723.19 254.222C778.517 188.601 772.17 39.9606 772.17 39.9606" stroke="black"/>
</g>
<defs>
<clipPath id="clip0_6_2">
<rect width="1000" height="800" fill="white"/>
</clipPath>
</defs>
</svg>
